<?xml version="1.0" encoding="utf-8" ?><svg xmlns="http://www.w3.org/2000/svg" xmlns:xlink="http://www.w3.org/1999/xlink" width="2560" height="1047" viewBox="0 0 2560 1047"><path fill="#36A840" d="M1893.7 121.685L1912.06 121.685L1912.06 158.141L1930.31 158.141L1930.31 194.431L1966.53 194.431L1966.53 176.392L1948.2 176.392L1948.2 140.093L1930.14 140.093L1930.14 121.685L2039.33 121.685L2039.33 139.913L2057.44 139.913L2057.44 121.685L2130.35 121.685L2130.35 194.752L2112.2 194.752L2112.14 230.956L2094.01 231.022L2094.01 249.047L2112.14 249.13L2112.2 267.273L2075.96 267.273L2075.96 285.423L2148.36 285.423L2148.36 267.121L2166.94 267.121L2166.94 285.423L2203.02 285.423L2203.02 267.121L2221.54 267.121L2221.54 285.698L2203.21 285.698L2203.21 303.938L2166.94 303.938L2166.84 321.873L2130.52 321.967C2130.48 326.777 2130.67 335.619 2130.28 340.102C2129.92 334.918 2130.11 327.167 2130.08 321.779L2130.13 303.938L2094.01 303.938L2093.94 321.873L2075.83 321.967L2075.83 303.938L2057.88 303.938L2057.82 340L2075.96 340L2075.96 394.841L2057.7 394.841L2057.7 412.892L2039.23 412.814L2039.12 394.841L2021.18 394.709L2021.08 376.583L2003.06 376.583L2003.04 393.821L2002.76 394.811L1984.83 394.841L1984.83 412.892L1948.03 412.892C1947.19 420.179 1947.2 441.879 1947.75 449.403C1935.83 449.28 1923.91 449.219 1912 449.219L1912 431.023L1930.14 430.957L1930.14 412.892L1912.06 412.892L1912 431.023L1893.8 431.023L1893.7 412.892L1875.8 412.892L1875.8 430.957L1893.8 431.023L1893.9 449.116L1912 449.219C1912.01 460.95 1912.32 474.082 1912 485.697L1893.9 485.811L1893.8 503.926L1857.2 503.992L1857.2 485.583L1875.61 485.583L1875.61 467.417L1857.2 467.417L1857.32 449.219C1862.94 449.202 1870.22 448.976 1875.7 449.219L1875.8 467.214L1893.7 467.214L1893.7 449.323L1875.7 449.219L1875.61 431.088L1857.43 431.088L1857.32 449.219L1839.14 449.323L1839.14 503.992C1834.92 504.025 1825.97 503.87 1822.07 504.238L1822.32 359.426C1827.46 359.486 1834.11 359.841 1839.01 358.805L1839.01 340.181L1821.05 340.091L1820.96 321.779L1839.01 321.841L1839.01 303.938L1802.69 303.938L1802.69 285.698L1785.01 285.698L1784.95 321.903L1784.89 340.181L1766.36 340.181C1765.97 336.633 1766.16 326.024 1766.14 321.967L1748.05 321.967L1748.05 267.121L1766.62 267.121L1766.62 285.188L1784.66 285.188L1784.66 267.121L1821.14 267.121L1821.14 285.423L1839.01 285.423L1839.01 267.121L1893.8 267.197L1893.9 285.423L1911.93 285.423L1912 267.197L1930.14 267.121L1930.14 230.89L1948.49 230.89L1948.49 285.423L1966.53 285.423L1966.53 230.89L1984.56 230.89L1984.56 212.98L1930.14 212.98L1930.14 194.752L1893.7 194.752L1893.7 176.147L1911.93 176.147L1911.93 158.378L1893.7 158.378L1893.7 121.685ZM1912 321.873L1893.7 321.967L1893.7 303.938L1875.8 303.938L1875.8 321.967L1857.61 321.967C1857.57 326.692 1857.76 335.614 1857.37 340C1856.97 336.844 1857.15 325.651 1857.13 321.903L1839.01 321.841L1820.96 321.779L1821.05 340.091L1839.01 340.181L1839.01 358.805C1834.11 359.841 1827.46 359.486 1822.32 359.426L1822.07 504.238C1825.97 503.87 1834.92 504.025 1839.14 503.992L1839.14 449.323L1857.32 449.219L1857.43 431.088L1875.61 431.088L1875.7 449.219L1893.7 449.323L1893.7 467.214L1875.8 467.214L1875.7 449.219C1870.22 448.976 1862.94 449.202 1857.32 449.219L1857.2 467.417L1875.61 467.417L1875.61 485.583L1857.2 485.583L1857.2 503.992L1893.8 503.926L1893.9 485.811L1912 485.697C1912.32 474.082 1912.01 460.95 1912 449.219L1893.9 449.116L1893.8 431.023L1875.8 430.957L1875.8 412.892L1893.7 412.892L1893.8 431.023L1912 431.023L1912.06 412.892L1930.14 412.892L1930.14 430.957L1912 431.023L1912 449.219C1923.91 449.219 1935.83 449.28 1947.75 449.403C1947.2 441.879 1947.19 420.179 1948.03 412.892L1984.83 412.892L1984.83 394.841L2002.76 394.811L2003.04 393.821L2003.06 376.583L2021.08 376.583L2021.18 394.709L2039.12 394.841L2039.23 412.814L2057.7 412.892L2057.7 394.841L2075.96 394.841L2075.96 340L2057.82 340C2057.78 343.9 2057.93 354.874 2057.53 358.225C2057.13 353.659 2057.34 345.036 2057.33 340.181L2040.14 340.132L2039.25 339.723L2039.12 321.903L2039.12 303.938L2003.06 303.938L2003.06 321.967C1996.99 321.933 1990.92 322.009 1984.85 322.197L1984.83 340.181L1966.53 340.181L1966.53 321.779C1972.47 321.752 1978.42 321.829 1984.36 322.01C1984.73 318.508 1984.54 307.947 1984.56 303.938L1930.14 303.938L1930.14 285.698L1912.06 285.698L1912 321.873ZM2002.88 176.147L2039.12 176.147L2039.12 140.093L2021 140.093L2003.06 140.093L2003.06 158.378L1984.83 158.378L1984.83 212.786L2002.97 212.883L2002.97 230.956L1984.83 231.022L1984.83 267.121L2003.06 267.121L2003.06 285.423L2021.08 285.423C2021.1 273.793 2020.82 260.631 2021.18 249.13L2039.12 249.047L2039.12 231.022L2021.18 230.956C2021.2 236.801 2021.35 243.349 2021.18 249.13L2002.88 249.212L2002.97 230.956L2021.18 230.956L2021.08 212.98L2002.97 212.883C2002.65 201.088 2002.9 188.043 2002.88 176.147ZM2057.44 303.51L2057.44 267.273L2039.33 267.273L2039.33 303.51L2057.44 303.51ZM2075.83 231.5L2075.83 212.786L2093.88 212.786L2093.88 194.431L2112.07 194.431L2112.07 176.392L2075.96 176.392L2075.96 194.752L2057.7 194.752L2057.7 249.047L2075.83 249.047L2075.83 231.5ZM2022 341.288L2039.27 341.234C2039.34 346.358 2039.25 353.005 2039.54 357.999C2035.72 357.36 2026.31 357.55 2022 357.526L2022 341.288ZM2039.33 176.392L2039.33 194.431L2057.44 194.431L2057.44 176.392L2039.33 176.392ZM2112.07 140.093L2075.96 140.093L2075.96 158.141L2112.07 158.141L2112.07 140.093ZM2075.83 158.378L2057.7 158.378L2057.7 176.147L2075.83 176.147L2075.83 158.378ZM1875.61 303.763L1875.61 285.698L1839.14 285.698L1839.14 303.51C1851.3 303.661 1863.45 303.746 1875.61 303.763ZM2039.12 194.752L2021.29 194.752L2021.29 212.786L2039.12 212.786L2039.12 194.752Z"/><path fill="#F7EB33" d="M1966.53 321.779C1972.47 321.752 1978.42 321.829 1984.36 322.01L1984.85 322.197L1984.83 340.181L1966.53 340.181L1966.53 321.779Z"/><path fill="#F7EB33" fill-opacity="0.9137255" d="M2039.25 339.723L2040.14 340.132L2039.27 341.234L2022 341.288L2022 357.526C2026.31 357.55 2035.72 357.36 2039.54 357.999L2039.14 358.645L2021.12 358.624C2020.84 353.531 2020.99 346.527 2020.95 341.288C2014.94 341.349 2008.77 341.656 2002.88 340.608C2006.2 339.5 2033.39 339.857 2039.25 339.723Z"/><path fill="#F7EB33" d="M1839.01 321.841L1857.13 321.903C1857.15 325.651 1856.97 336.844 1857.37 340L1875.8 340L1875.8 358.225L1893.9 358.225L1893.9 376.237L1912.06 376.237L1912.06 394.577L1930.14 394.577L1930.14 358.541L1911.93 358.541L1912 321.873L1948.49 321.779L1948.49 340.181L1930.31 340.181L1930.31 358.225L1948.49 358.225L1948.49 376.237L1966.53 376.237L1966.53 358.225L1984.83 358.225L1984.83 376.237L2002.88 376.237L2002.88 340.608C2008.77 341.656 2014.94 341.349 2020.95 341.288C2020.99 346.527 2020.84 353.531 2021.12 358.624C2021.18 364.455 2021.31 370.419 2021.29 376.237L2039.12 376.237L2039.14 358.645L2039.54 357.999C2045.53 358.196 2051.53 358.271 2057.53 358.225C2057.93 354.874 2057.78 343.9 2057.82 340L2075.96 340L2075.96 394.841L2057.7 394.841L2057.7 412.892L2039.23 412.814L2039.12 394.841L2021.18 394.709L2021.08 376.583L2003.06 376.583L2003.04 393.821L2002.76 394.811L1984.83 394.841L1984.83 412.892L1948.03 412.892C1947.19 420.179 1947.2 441.879 1947.75 449.403C1935.83 449.28 1923.91 449.219 1912 449.219L1912 431.023L1930.14 430.957L1930.14 412.892L1912.06 412.892L1912 431.023L1893.8 431.023L1893.7 412.892L1875.8 412.892L1875.8 430.957L1893.8 431.023L1893.9 449.116L1912 449.219C1912.01 460.95 1912.32 474.082 1912 485.697L1893.9 485.811L1893.8 503.926L1857.2 503.992L1857.2 485.583L1875.61 485.583L1875.61 467.417L1857.2 467.417L1857.32 449.219C1862.94 449.202 1870.22 448.976 1875.7 449.219L1875.8 467.214L1893.7 467.214L1893.7 449.323L1875.7 449.219L1875.61 431.088L1857.43 431.088L1857.32 449.219L1839.14 449.323L1839.14 503.992C1834.92 504.025 1825.97 503.87 1822.07 504.238L1822.32 359.426C1827.46 359.486 1834.11 359.841 1839.01 358.805L1839.01 340.181L1821.05 340.091L1820.96 321.779L1839.01 321.841ZM1875.61 412.737L1875.61 394.841L1857.43 394.841L1857.43 412.737L1875.61 412.737ZM1966.81 376.583L1966.81 394.577L1984.56 394.577L1984.56 376.583L1966.81 376.583ZM1857.43 376.237L1875.61 376.237L1875.61 358.541L1857.43 358.565L1857.43 376.237ZM1857.2 376.583L1839.14 376.583L1839.14 394.577L1857.2 394.577L1857.2 376.583Z"/><path fill="#F7EB33" d="M1766.58 321.903L1784.95 321.903L1784.89 340.181L1766.36 340.181C1766.73 335.398 1766.54 326.962 1766.58 321.903Z"/><path fill="#F7EB33" d="M2039.12 321.903L2057.37 321.903L2057.33 340.181L2040.14 340.132L2039.25 339.723L2039.12 321.903Z"/><path fill="#36A840" d="M2002.97 230.956L2021.18 230.956C2021.2 236.801 2021.35 243.349 2021.18 249.13L2002.88 249.212L2002.97 230.956Z"/><path fill="#36A840" d="M1672.05 20.7634C1681.49 16.8129 1703.71 12.2031 1714.64 9.6622L1714.64 58.0667L1732.93 58.0667L1732.93 94.7365C1721.11 94.7593 1707.82 94.4775 1696.13 94.8405L1696.27 112.957L1678.25 112.957L1678.25 130.805L1714.36 130.805L1714.36 112.796L1732.93 112.796L1732.93 130.989L1714.64 130.989L1714.64 149.034L1732.93 149.034L1732.93 185.633L1714.64 185.633L1714.64 203.636L1732.93 203.636L1732.93 249.212L1714.64 249.212L1714.64 267.121L1732.93 267.121L1732.93 303.938L1714.64 303.938L1714.66 321.779L1732.93 321.779L1732.93 340.181L1714.45 340.181C1714.04 336.661 1714.23 326.016 1714.21 321.967L1678.15 321.872L1678.05 303.763L1714.36 303.763L1714.36 285.698L1696.08 285.698L1696.08 267.273L1678.25 267.273L1678.25 285.698L1660.23 285.824C1660.06 291.86 1659.99 297.899 1660.01 303.938L1623.76 303.938L1623.78 321.779L1641.78 321.779L1641.78 340.181L1623.53 340.181C1623.12 337.089 1623.28 325.68 1623.26 321.967L1587.17 321.873L1587.1 303.938L1550.87 303.938C1550.87 309.912 1550.93 315.886 1551.05 321.858L1550.75 322.817C1546.5 321.363 1537.39 321.912 1532.53 321.967L1532.53 303.938L1514.69 303.938C1514.65 313.773 1514.08 330.75 1514.74 340.005L1514.18 340.335L1496.25 340.148C1495.81 335.673 1496.01 326.73 1495.98 321.903L1496.07 304.098C1484 303.914 1471.93 303.861 1459.86 303.938L1459.86 321.967C1454.26 322.007 1447.34 321.873 1441.85 322.149L1441.35 321.978C1441.71 319.21 1441.58 308.568 1441.6 305.216C1456.19 296.235 1452.09 292.747 1459.35 282.422L1460.56 285.05C1463.58 285.88 1474.14 285.471 1477.91 285.423L1477.91 264.916C1481.41 260.99 1482.04 259.094 1484.18 254.215C1505.47 244.429 1504.75 228.925 1509.9 207.957C1514.55 189.039 1517.58 195.61 1529.41 185.229L1569.03 185.273L1569.03 203.868L1550.87 203.868L1550.87 249.047L1569.03 249.047L1569.03 267.273L1532.75 267.273L1532.75 285.423L1605.16 285.423L1605.16 167.262L1538.13 167.262C1538.02 157.601 1536.08 142.02 1541.14 132.796C1542.39 130.516 1547.55 130.637 1550.65 130.272L1550.66 112.796L1587.25 112.796L1587.21 130.354C1592.62 131.064 1618.89 131.337 1623.48 130.24L1623.43 112.796L1641.78 112.796L1641.78 130.989L1623.85 130.924L1623.76 149.034L1660.01 149.034L1659.92 167.16L1623.76 167.262L1623.76 203.636C1630.91 203.566 1656.16 202.084 1660.18 205.668L1659.84 209.603C1664.14 214.471 1671.96 212.833 1678.25 212.786L1678.25 240.107C1671.81 239.942 1664.57 238.608 1660.18 242.759C1660.44 246.114 1660.98 245.781 1659.32 248.129C1652.65 250.48 1632.14 249.127 1623.76 249.212L1623.76 285.423L1660.07 285.376C1659.68 280.622 1659.86 272.157 1659.83 267.121L1678.05 267.121L1678.05 249.047C1685.48 248.961 1709 250.318 1714.22 248.083C1714.3 244.852 1714.53 243.77 1712.65 241.03C1709.39 239.007 1700.63 240.011 1696.08 240.107L1696.08 212.786C1702.5 212.691 1709.89 215.227 1714.01 210.063C1714.21 206.968 1714.78 206.592 1713.32 204.375C1706.86 203.048 1686.01 203.789 1678.05 203.868L1678.05 185.633L1659.83 185.633L1659.92 167.16L1678.25 167.058L1678.25 185.273L1696.08 185.273L1696.08 167.058L1714.36 167.058L1714.36 149.214L1678.05 149.214L1678.05 130.989L1659.83 130.989L1659.83 94.4706C1671.81 94.5271 1683.8 94.4791 1695.78 94.3265C1696.07 88.3263 1696.17 82.3186 1696.08 76.3121L1641.47 76.3121L1641.47 58.2456L1623.76 58.2456L1623.76 94.7365L1587.1 94.7365L1587.1 76.1503L1605.16 76.1503L1605.16 40.0693C1600.92 40.0382 1598.73 40.7303 1595.55 38.7897C1597.29 35.9032 1601.77 35.7781 1604.96 35.7862L1605.74 39.5203C1608.76 40.3919 1636.48 39.94 1641.47 39.9124L1641.48 26.7488L1660.01 22.3673L1660.01 58.0667L1696.08 58.0667L1696.08 21.8278C1688.2 21.8597 1679.76 22.1521 1672.05 20.7634ZM1514.38 249.047L1532.53 249.047L1532.53 203.868L1514.38 203.868L1514.38 249.047ZM1623.73 221.919C1623.72 224.96 1623.29 228.156 1624.8 230.587C1633.58 231.627 1650.45 230.984 1659.85 230.89C1659.85 228.257 1660.27 224.243 1658.95 222.279C1649.07 221.334 1634 221.857 1623.73 221.919ZM1550.87 149.034L1587.1 149.034L1587.01 130.943L1550.93 130.955L1550.87 149.034ZM1496.11 267.273C1496.05 273.758 1495.43 298.974 1496.87 303.713C1502.58 303.583 1508.3 303.516 1514.01 303.51C1514.63 293.704 1514.14 277.552 1514.15 267.273L1496.11 267.273Z"/><path fill="#F7EB33" d="M1714.66 321.779L1732.93 321.779L1732.93 340.181L1714.45 340.181C1714.84 335.577 1714.63 326.702 1714.66 321.779Z"/><path fill="#F7EB33" d="M1495.98 321.903L1513.97 321.903L1514.18 340.335L1496.25 340.148C1495.81 335.673 1496.01 326.73 1495.98 321.903Z"/><path fill="#F7EB33" d="M1623.78 321.779L1641.78 321.779L1641.78 340.181L1623.53 340.181C1623.97 335.718 1623.76 326.607 1623.78 321.779Z"/><path fill="#36A840" d="M1748.05 121.685L1875.8 121.685L1875.8 249.212L1748.05 249.212L1748.05 121.685ZM1766.62 230.89L1857.2 230.89L1857.2 140.093L1766.62 140.093L1766.62 230.89Z"/><path fill="#36A840" d="M1784.66 158.141L1839.14 158.141L1839.14 212.98L1784.66 212.98L1784.66 158.141Z"/><path fill="#36A840" d="M2148.36 121.685L2276.09 121.685L2276.09 249.212L2148.36 249.212L2148.36 121.685ZM2166.94 230.89L2257.74 230.89L2257.74 140.093L2166.94 140.093L2166.94 230.89Z"/><path fill="#36A840" d="M2184.79 158.141L2239.58 158.141L2239.58 212.98L2184.79 212.98L2184.79 158.141Z"/><path fill="#F7EB33" d="M2093.88 358.225L2112.2 358.225L2112.2 394.577L2129.68 394.577C2128.3 402.465 2129.23 422.668 2129.15 431.693L2128.97 540.066L2130.39 540.021L2130.52 558.1C2142.19 558.122 2155.79 557.814 2167.29 558.232C2170.12 560.045 2180.04 559.437 2183.96 559.4L2183.96 575.549C2178.39 575.518 2152.73 575.05 2148.72 576.134L2148.72 594.926L2130.13 594.926L2130.13 576.873L2111.96 576.873L2111.96 540.296L2094.01 540.296L2094.02 556.971L2091.56 557.383C2085.95 550.209 2083.43 552.485 2075.82 556.323L2075.83 540.158L2057.78 540.296C2057.8 543.22 2058.18 553.499 2057.3 555.563L2057.43 540.086L2057.44 503.992C2039.63 503.82 2021.82 503.888 2004.01 504.196L2004.26 394.636C2009.64 394.652 2015.88 394.519 2021.18 394.709C2021.21 399.298 2021.47 407.168 2021.1 411.469C2021.04 417.026 2020.71 425.891 2021.12 431.145C2021.34 436.841 2021.24 443.353 2021.29 449.116L2039.12 449.116L2039.1 431.048C2051.13 431.012 2063.94 430.766 2075.9 431.023L2075.96 467.214L2094.01 467.214L2094.01 485.583L2112.07 485.583L2112.07 431.088L2075.9 431.023L2075.83 412.737L2112.07 412.737L2112.07 394.841L2093.88 394.841L2093.88 358.225ZM2093.91 521.859L2112.13 521.859L2112.07 503.992L2094.01 503.992L2093.91 521.859Z"/><path fill="#FEFEFE" d="M2093.91 521.859L2112.13 521.859L2112.2 540.02L2128.97 540.066L2130.39 540.021L2130.52 558.1C2142.19 558.122 2155.79 557.814 2167.29 558.232C2170.12 560.045 2180.04 559.437 2183.96 559.4L2183.96 575.549C2178.39 575.518 2152.73 575.05 2148.72 576.134L2148.72 594.926L2130.13 594.926L2130.13 576.873L2111.96 576.873L2111.96 540.296L2094.01 540.296L2094.02 556.971L2091.56 557.383C2085.95 550.209 2083.43 552.485 2075.82 556.323L2075.83 540.158C2081.15 539.884 2088.33 540.056 2093.8 540.02L2093.91 521.859Z"/><path fill="#F7EB33" d="M1568.97 394.709L1587.25 394.577L1587.25 412.737C1591.25 412.753 1601.28 412.597 1604.8 413.101L1605.27 414.053L1605.41 431.088L1587.25 431.088L1587.25 467.801C1592.81 468.792 1598.81 468.488 1604.5 468.43L1604.52 503.966L1587.25 503.992L1587.22 515.511C1577.97 514.794 1571.25 516.303 1568.12 506.348C1564.04 502.657 1556.52 503.816 1550.87 503.992L1550.87 540.02C1551 543.418 1551.71 548.392 1549.76 550.946C1542.82 555.702 1540.84 550.164 1532.62 560.06C1532.31 554.083 1532.48 546.408 1532.44 540.296L1514.15 540.296L1514.15 503.992C1502.44 503.84 1490.73 503.916 1479.03 504.218C1479.35 486.591 1479.07 468.067 1479.09 450.365C1484.24 450.425 1491.1 450.797 1495.98 449.725L1496.06 431.033L1532.52 430.957L1532.53 412.737L1568.9 412.737L1568.97 394.709ZM1532.75 467.214L1550.87 467.214L1550.87 485.583L1568.9 485.583L1568.9 431.088L1532.75 431.088L1532.75 467.214Z"/><path fill="#FEFEFE" d="M1532.81 540.02L1550.87 540.02C1551 543.418 1551.71 548.392 1549.76 550.946C1542.82 555.702 1540.84 550.164 1532.62 560.06C1532.94 554.016 1532.77 546.202 1532.81 540.02Z"/><path fill="#FEFEFE" d="M1529.92 879.275C1562.53 878.03 1580.22 897.384 1582.84 928.8C1585.49 960.588 1576.43 990.363 1541.29 997.11C1512.49 997.51 1493.18 985.028 1488.19 954.809C1482.73 921.674 1491.21 885.411 1529.92 879.275ZM1540.74 973.431C1561.42 964.363 1561.73 935.37 1554.94 916.628C1550.81 905.217 1540.47 901.848 1528.95 903.128C1517.33 908.729 1513.36 917.306 1511.9 929.948C1509.59 949.954 1514.48 977.189 1540.74 973.431Z"/><path fill="#FEFEFE" d="M567.313 879.232C599.645 878.071 617.605 897.372 620.155 928.879C622.697 960.282 614.018 990.192 578.876 997.06C550.352 997.641 530.626 985.47 525.601 955.262C520.024 921.737 528.191 885.673 567.313 879.232ZM578.345 973.243C598.749 964.563 599.074 934.768 592.212 916.618C587.887 905.179 577.638 901.631 565.99 903.207C554.034 909.307 550.604 917.866 549.086 930.975C546.828 950.472 552.663 978.084 578.345 973.243Z"/><path fill="#FEFEFE" d="M426.062 882.667C448.821 882.534 482.882 878.649 499.952 895.365C522.83 917.769 521.675 958.84 500.801 982.202C480.182 1001.02 453.222 996.492 426.062 996.273L426.062 882.667ZM449.561 974.846C462.483 974.979 473.09 976.361 482.932 966.773C483.296 966.417 483.651 966.052 483.997 965.679C495.472 949.749 496.4 921.738 479.352 908.935C471.62 903.128 458.996 903.989 449.561 904.116L449.561 974.846Z"/><path fill="#FEFEFE" fill-opacity="0.94901961" d="M1784.66 558.719C1789.67 557.751 1834.43 557.314 1839.14 558.719C1833.41 559.69 1827.95 559.43 1822.15 559.37L1822.15 611.636C1826.74 611.631 1834.96 611.325 1839.14 612.325C1834.15 613.779 1789.81 613.379 1784.66 612.325C1789.03 611.331 1797.13 611.631 1801.89 611.636L1801.89 559.37C1795.91 559.43 1790.59 559.67 1784.66 558.719Z"/><path fill="#FEFEFE" d="M1803.72 559.37L1820.28 559.37L1820.28 611.636L1803.72 611.636L1803.72 559.37Z"/><path fill="#FEFEFE" d="M1784.66 558.719C1790.59 559.67 1795.91 559.43 1801.89 559.37L1801.89 611.636C1797.13 611.631 1789.03 611.331 1784.66 612.325L1784.66 558.719Z"/><path fill="#FEFEFE" d="M1839.14 558.719L1839.14 612.325C1834.96 611.325 1826.74 611.631 1822.15 611.636L1822.15 559.37C1827.95 559.43 1833.41 559.69 1839.14 558.719Z"/><path fill="#FEFEFE" d="M1259.3 541.353C1259.17 537.769 1258.78 533.762 1259.73 530.359C1269.16 522.101 1261.37 521.288 1265.58 512.337C1267.63 507.983 1279.05 502.572 1280.62 499.806C1286.62 489.277 1289.2 481.278 1296.17 470.687C1296.5 487.743 1296.45 504.805 1296.02 521.859L1314.18 521.859L1314.18 540.087L1332.49 540.087L1332.49 558.101L1350.38 558.101C1350.77 553.555 1350.58 544.876 1350.61 540.021L1368.93 540.021L1368.93 558.101L1386.86 558.101L1386.91 540.021L1403.78 540.116C1403.9 551.926 1403.96 563.737 1403.97 575.548C1394.05 575.515 1378 574.999 1368.59 576C1368.84 570.717 1368.71 564.009 1368.75 558.614L1350.68 558.614L1350.68 576.344C1357.03 576.418 1362.24 576.379 1368.59 576L1368.92 576.719C1368.9 588.463 1369.14 601.256 1368.84 612.908L1350.68 612.977L1350.67 626.913C1342.38 620.483 1341.7 619.785 1332.25 615.927L1332.25 594.926L1314.03 594.926L1314.03 576.695L1296.37 576.695L1296.37 593.115C1291.64 592.902 1286.15 593.53 1282.5 591.252C1279.56 587.973 1279.52 581.907 1278.92 577.312C1275.19 576.45 1266.54 576.493 1262.41 576.431L1260.14 576.53C1258.2 572.999 1259.21 546.97 1259.3 541.353ZM1314.18 576.344L1332.25 576.344L1332.25 558.315L1314.18 558.315L1314.18 576.344ZM1332.49 594.715L1350.39 594.715L1350.39 576.695L1332.49 576.695L1332.49 594.715Z"/><path fill="#F7EB33" d="M1259.3 541.353C1259.17 537.769 1258.78 533.762 1259.73 530.359C1269.16 522.101 1261.37 521.288 1265.58 512.337C1267.63 507.983 1279.05 502.572 1280.62 499.806C1286.62 489.277 1289.2 481.278 1296.17 470.687C1296.5 487.743 1296.45 504.805 1296.02 521.859C1295.93 528.136 1295.87 534.414 1295.85 540.692C1290.27 539.866 1264.38 538.823 1260.17 541.112L1259.3 541.353Z"/><path fill="#FEFEFE" d="M1260.17 541.112C1264.38 538.823 1290.27 539.866 1295.85 540.692C1290.31 541.778 1284.71 541.465 1279.05 541.399C1279.04 551.515 1279.53 567.683 1278.92 577.312C1275.19 576.45 1266.54 576.493 1262.41 576.431L1260.14 576.53C1258.2 572.999 1259.21 546.97 1259.3 541.353L1260.17 541.112Z"/><path fill="#FEFEF8" d="M1260.17 541.112C1264.38 538.823 1290.27 539.866 1295.85 540.692C1290.31 541.778 1284.71 541.465 1279.05 541.399C1279.04 551.515 1279.53 567.683 1278.92 577.312C1275.19 576.45 1266.54 576.493 1262.41 576.431C1266.29 575.268 1272.71 575.547 1276.95 575.525L1276.93 541.399C1271.13 541.469 1265.95 541.333 1260.17 541.112Z"/><path fill="#FEFEFE" d="M632.967 882.667C650.294 882.559 669.425 881.785 686.537 882.982C727.683 885.86 735.441 937.962 694.652 952.232L722.365 996.273L706.5 996.273L693.983 996.266L669.553 954.901L656.333 954.901L656.333 996.273L632.967 996.273L632.967 882.667ZM656.333 933.168C667.146 933.299 683.09 934.711 692.255 929.524C712.141 902.172 671.38 903.906 656.333 904.116L656.333 933.168Z"/><path fill="#FEFEFE" d="M2455.79 882.667L2488.73 882.667L2498.81 931.44L2508.79 882.667L2541.58 882.667L2541.59 996.273L2517.88 996.273L2517.87 944.5L2517.87 917.043C2514.95 926.51 2510.93 952.449 2508.73 963.853L2488.39 963.853C2485.13 949.114 2483.11 932.129 2479.14 917.755L2479.19 996.273L2455.79 996.273L2455.79 882.667Z"/><path fill="#F7EB33" d="M2203.02 321.779L2221.22 321.779C2221.23 325.451 2221.06 336.951 2221.46 340L2239.58 340L2239.58 358.225L2276.09 358.225L2276.09 394.841L2257.89 394.841L2257.89 449.323L2239.58 449.323L2239.58 503.859L2276.09 503.859L2276.09 522.035L2257.89 522.035C2257.92 527.091 2257.73 535.43 2258.11 540.216L2257.84 540.75C2254.74 540.064 2243.17 540.293 2239.3 540.296L2239.3 522.035L2221.07 522.035C2220.33 525.694 2220.56 534.718 2220.55 538.825L2204.17 538.825C2204.23 528.732 2205.08 494.296 2203.66 485.583L2221.22 485.583L2221.22 467.417L2203.02 467.417L2203.02 449.116L2221.22 449.116L2221.22 430.957L2239.3 430.957L2239.3 394.242C2235.45 393.218 2226.55 393.577 2222.2 393.595L2222.2 377.412C2227.58 377.469 2234.12 377.798 2239.3 376.804L2239.3 358.541L2203.02 358.541L2203.02 321.779Z"/><path fill="#FEFEFE" d="M2146.26 882.707L2173.91 882.667L2207.59 951.936C2208.48 931.348 2207.68 903.78 2207.68 882.667L2231.2 882.667C2231.21 894.796 2232.26 993.002 2229.94 996.273L2203.2 996.273C2192.26 972.043 2181.14 947.895 2169.84 923.83L2169.84 996.273L2146.26 996.273L2146.26 882.707Z"/><path fill="#FEFEFE" d="M220.067 882.667L247.72 882.667C258.761 905.766 269.976 928.781 281.364 951.71L281.383 882.667L305.027 882.667L305.053 958.209C305.054 966.89 305.609 987.436 304.751 995.399L303.109 996.273L277.081 996.273C265.74 973.215 254.397 947.065 243.577 923.522L243.577 996.273L220.067 996.273L220.067 882.667Z"/><path fill="#FEFEFE" d="M1596.44 882.667L1624.08 882.667L1657.8 952.494L1657.81 882.667L1681.32 882.667L1681.35 958.204C1681.35 966.108 1681.87 988.434 1680.98 995.458L1679.16 996.273L1653.39 996.273C1641.98 972.97 1631.22 947.579 1619.95 923.807L1619.95 996.273L1596.44 996.273L1596.44 882.667Z"/><path fill="#FEFEFE" d="M1286.73 882.667L1314.21 882.667C1325.55 904.53 1337.09 929.812 1347.94 952.2L1347.94 882.667L1371.53 882.667C1371.55 896.187 1373.03 989.847 1370.83 996.273L1343.59 996.273L1310.09 923.228L1310.07 996.273L1286.73 996.273L1286.73 882.667Z"/><path fill="#FEFEFE" d="M347.793 882.667L383.69 882.667L415.771 996.273L389.449 996.273C387.977 990.519 386.362 984.7 384.827 978.953L345.714 978.953L341.37 996.273L315.467 996.273L347.793 882.667ZM366.5 957.246L379.226 957.246C377.23 949.259 367.655 909.279 364.987 904.467C360.566 922.091 356.024 939.684 351.361 957.246L366.5 957.246Z"/><path fill="#FEFEFE" d="M1862.05 882.677L1897.98 882.667C1908.04 920.287 1919.39 958.709 1929.99 996.273L1903.61 996.273L1899.33 978.953L1859.95 978.953L1855.62 996.273L1829.73 996.273L1862.05 882.677ZM1880.5 957.246L1893.58 957.246C1891.82 950.459 1881.55 907.669 1879.16 904.599L1865.66 957.246L1880.5 957.246Z"/><path fill="#FEFEFE" d="M807.571 879.313C838.041 876.557 854.587 887.458 859.569 917.704L833.754 917.704C833.308 915.53 832.784 912.341 831.972 910.279C826.603 896.647 793.545 897.267 794.342 914.251C794.786 918.901 799.141 921.331 803.133 922.582C821.027 928.089 857.181 930.106 859.806 954.939C862.885 984.062 845.896 993.478 822.023 997.106C791.01 997.611 770.475 994.538 766.609 958.864L793.717 958.859C794.82 965.174 794.656 965.544 798.983 970.072C813.585 985.347 853.763 965.013 827.042 952.745C809.95 944.897 772.797 948.224 769.791 920.853C766.821 893.813 783.774 882.463 807.571 879.313Z"/><path fill="#FEFEFE" d="M1426.52 879.322C1457.11 876.738 1473.23 887.299 1478.43 917.686L1452.56 917.704C1451.51 911.501 1451.75 910.942 1447.95 906.325C1434.93 890.491 1396.42 910.214 1420.18 922.194C1438.37 931.364 1473.71 924.671 1477.82 954.588C1481.79 983.411 1466.87 992.892 1441.74 997.037C1411.19 997.735 1388.67 994.881 1385.51 958.862L1412.63 958.859C1416.44 985.491 1459.36 975.411 1453.81 960.424C1446.95 941.888 1393.21 955.543 1388.24 919.587C1387.03 910.516 1389.53 901.341 1395.19 894.148C1403.44 883.781 1414.14 880.824 1426.52 879.322Z"/><path fill="#FEFEFE" d="M49.098 879.386C79.6504 877.508 97.3045 885.613 101.838 917.704L76.3725 917.704C75.2971 912.663 74.9061 909.31 70.7858 905.715C63.0378 898.953 45.5796 898.138 38.9702 907.018C37.2978 909.241 36.6466 912.07 37.1781 914.8C39.5541 927.679 76.8023 925.712 89.4002 936.079C106.583 950.218 107.48 969.884 92.5735 986.166C85.4957 993.896 73.7801 995.721 64.3759 997.11C32.9115 997.559 13.2251 994.519 9.08723 958.859C11.9811 958.81 35.3174 957.656 36.3367 960.76C39.8295 971.393 45.6527 975.27 56.2095 974.883C63.5376 974.615 71.4421 974.369 75.378 969.078C77.1831 966.678 77.8618 963.615 77.2392 960.678C73.4945 943.175 14.681 953.251 12.4039 921.246C10.4588 893.907 23.5902 883.055 49.098 879.386Z"/><path fill="#FEFEFE" d="M2043.26 882.707L2131.16 882.667L2131.16 904.116L2066.85 904.116L2066.85 927.392L2119.3 927.392L2119.3 949.012L2070.75 949.012C2069.44 948.994 2068.88 949.275 2067.6 949.629C2065.96 954.183 2066.73 969.55 2066.85 974.846L2131.16 974.846L2131.16 996.273L2043.26 996.273L2043.26 882.707Z"/><path fill="#FEFEFE" d="M117.067 882.667L204.97 882.667L204.972 904.116L140.577 904.116L140.577 927.392L193.101 927.396L193.101 949.009L144.75 949.012C143.43 948.995 142.733 949.294 141.445 949.626C139.618 954.189 140.453 969.488 140.577 974.846L204.972 974.846L204.972 996.273L117.067 996.273L117.067 882.667Z"/><path fill="#FEFEFE" d="M1183.73 882.667L1271.54 882.667L1271.54 904.116L1207.08 904.116L1207.08 927.392L1259.7 927.392L1259.69 949.012L1211.75 949.012C1209.51 948.944 1209.58 948.842 1207.7 949.969C1206.19 956.447 1206.95 967.828 1207.08 974.846L1271.56 974.846L1271.56 996.273L1183.73 996.273L1183.73 882.667Z"/><path fill="#36A840" d="M1738.93 36.3083L1757.42 36.3083L1757.42 54.3179L1793.49 54.3179C1793.3 49.7624 1792.59 43.927 1794.27 39.8527C1799.61 34.6852 1807.52 45.7982 1813.75 45.0283C1845.89 41.0558 1834.94 28.3803 1866.38 47.6732C1866.3 50.4284 1866.12 51.2328 1866.99 53.8712C1870.33 54.8802 1881.86 54.3826 1886.07 54.3179C1892.13 60.8028 1895.39 67.6988 1902.98 75.106L1902.98 91.1056L1884.85 91.1056L1884.79 104.25C1884.87 106.275 1884.78 106.271 1884.17 108.251C1879.64 110.156 1871.71 109.283 1866.37 109.154L1866.37 91.1056L1848.09 91.1056L1848.09 72.9077L1830.25 72.9077L1830.25 109.154L1811.84 109.154L1811.84 91.1056L1793.49 91.1056L1793.49 72.9077L1738.93 72.9077L1738.93 36.3083ZM1848.28 72.698L1866.37 72.698L1866.37 54.6774L1848.28 54.6774L1848.28 72.698Z"/><path fill="#FEFEFE" d="M2349.14 882.687L2441.9 882.667L2441.9 904.116L2406.79 904.116L2406.79 974.846L2441.9 974.846L2441.9 996.273L2349.15 996.273L2349.14 974.846L2384.07 974.846L2384.07 904.116L2349.16 904.116L2349.14 882.687Z"/><path fill="#FEFEFE" d="M1725.34 882.667L1752.2 882.667C1759.44 912.488 1768.33 943.916 1776.19 973.743L1800.18 882.667L1826.58 882.667L1821.33 900.249L1793.24 996.273L1758.54 996.273L1725.34 882.667Z"/><path fill="#FEFEFE" d="M1071.66 882.678L1098.38 882.667C1106.71 912.644 1114.52 943.535 1122.49 973.669C1130.94 945.182 1138.86 911.752 1146.52 882.667L1172.89 882.667C1170.93 889.052 1169.07 895.572 1167.18 901.989C1164.32 909.69 1160.4 924.878 1157.97 933.178L1139.5 996.273L1104.78 996.273L1071.66 882.678Z"/><path fill="#F7EB33" d="M1623.76 358.808L1623.76 394.577L1641.47 394.577L1641.47 376.815C1647.79 377.654 1652.68 377.496 1659 377.427C1658.93 386.682 1657.79 424.941 1659.34 431.088L1641.78 431.088L1641.78 449.731C1646.9 450.791 1653.65 450.434 1659 450.375C1658.92 459.348 1659.59 490.859 1658.69 498.133C1656.03 498.43 1654.21 498.346 1652.05 499.857C1631.17 505.681 1625.38 502.428 1606.09 504.233C1606.18 494.937 1607.15 456.968 1605.77 449.116L1623.43 449.116L1623.43 430.957L1641.47 430.957L1641.47 412.892C1634.07 412.856 1612.67 412.34 1606.19 413.608C1607.22 399.11 1606.34 374.511 1606.17 359.43C1612.66 359.502 1617.3 359.629 1623.76 358.808Z"/><path fill="#F7EB33" d="M1659.83 321.776L1678.15 321.872L1678.25 339.998L1696.27 339.998L1696.27 358.223L1732.93 358.223L1732.93 394.843L1714.64 394.843L1714.64 449.325L1696.27 449.325L1696.27 478.495C1691.92 481.792 1686.62 486.717 1681.19 486.046C1676.16 481.327 1677.85 474.154 1678.05 467.42L1660.51 467.42C1661.13 463.731 1660.95 454.501 1660.97 450.367C1666.75 450.427 1672.35 450.696 1678.05 449.727L1678.05 430.956L1696.08 430.956L1696.08 394.232C1692.35 393.019 1666.34 393.546 1660.97 393.584L1660.97 377.422C1667.79 377.465 1690.4 377.944 1696.08 376.812L1696.08 358.544L1659.83 358.544L1659.83 321.776Z"/><path fill="#FEFEFE" d="M968.044 882.667L995.245 882.667C1003.25 897.194 1012.19 916.532 1019.76 931.703C1027.62 915.299 1035.6 898.953 1043.7 882.667L1070.26 882.667C1063.4 896.96 1054.85 912.503 1047.45 926.671C1043.63 935.085 1037.29 945.507 1033.63 953.623C1029.38 963.08 1030.89 984.97 1031.02 996.273L1007.35 996.273C1007.39 990.595 1007.96 963.185 1006.76 960.132C997.723 937.115 979.604 904.804 968.044 882.667Z"/><path fill="#FEFEFE" d="M868.356 882.667L964.119 882.667L964.129 904.116L928.017 904.116L928.017 960.5L928.017 996.273L904.608 996.273L904.608 904.116L868.356 904.116L868.356 882.667Z"/><path fill="#FEFEFE" d="M2244.81 882.676L2340.57 882.667L2340.55 904.116L2304.3 904.116L2304.3 958.5L2304.3 996.273L2280.95 996.273L2280.95 904.116L2244.81 904.116L2244.81 882.676Z"/><path fill="#FEFEFE" d="M1940.27 882.707L1963.85 882.667L1963.85 974.846L2029.37 974.846L2029.37 996.273L1940.27 996.273L1940.27 882.707Z"/><path fill="#FEFEFE" d="M1912.06 540.021L1912.06 558.101L1930.14 558.101L1930.14 540.087L1948.49 540.087L1948.49 558.315L1930.31 558.315L1930.31 594.715L1948.03 594.735C1947.24 603.398 1946.89 640.267 1947.76 649.46C1941.76 649.361 1936.08 649.077 1930.14 649.952L1930.14 631.147L1912 631.08L1911.93 612.977L1893.7 612.977L1893.7 576.344L1911.93 576.344L1911.93 558.762L1893.49 558.762L1893.6 540.02L1912.06 540.021Z"/><path fill="#F7EB33" d="M2166.73 430.955L2184.86 430.969C2185.04 455.184 2185.08 479.401 2184.98 503.617L2202.81 503.612C2202.25 513.919 2202.1 529.725 2202.83 540.025L2186.11 540.101L2184.77 539.929L2184.78 503.994L2130.71 503.994C2131.48 496.3 2131.02 476.895 2131.01 468.409C2136.46 468.467 2143.11 468.802 2148.35 467.787L2148.35 449.113L2166.73 449.113L2166.73 430.955Z"/><path fill="#FEFEFE" d="M1822.08 523.265L1874.59 523.265L1874.5 610.047C1874.49 616.81 1874.12 643.996 1875.22 649.033C1868.19 647.878 1831.2 648.529 1822.08 648.556L1822.01 630.796C1830.37 631.495 1848.18 631.008 1857.2 631.012L1857.2 540.296C1851.19 540.337 1845.17 540.26 1839.16 540.063C1835.58 538.225 1826.47 538.839 1822.08 538.876L1822.08 523.265Z"/><path fill="#FEFEFE" d="M1711.88 594.821L1730.13 594.715L1730.11 704.543L1737.63 705.57C1738.39 716.099 1737.29 730.931 1738.55 741.744C1738 742.917 1737.53 743.909 1737.15 744.72C1722.76 724.425 1734.86 719.114 1716.52 701.385C1703.07 704.924 1698.58 705.137 1684.54 705.093L1684.54 685.688L1702.66 685.688C1702.54 679.642 1701.05 670.705 1706.25 666.942C1708.16 667.312 1709.05 667.709 1710.8 666.904C1712.66 660.03 1711.83 605.029 1711.88 594.821Z"/><path fill="#FEFEFE" d="M2148.36 521.859L2166.94 521.859L2166.94 540.296L2148.36 540.296L2148.36 521.859Z"/><path fill="#FEFEFE" d="M2239.16 558.217C2244.88 558.187 2252.24 557.95 2257.81 558.206L2257.89 576.339L2276.09 576.339L2276.09 612.981L2257.81 612.908L2257.73 576.7L2239.58 576.7L2239.58 612.836L2257.81 612.908L2257.89 625.747L2239.3 627.241L2239.3 612.981L2221.55 612.981L2221.55 627.564C2216.07 627.183 2184.83 625.167 2190.67 613.287C2195.81 612.084 2214.63 612.761 2221.22 612.836L2221.22 576.149C2217.97 575.27 2207.82 575.562 2203.95 575.565L2203.95 559.367C2211.09 559.473 2234.33 560.344 2239.16 558.217Z"/><path fill="#F7EB33" d="M1431.06 358.228L1441.85 358.288L1441.85 376.237C1448.08 376.311 1453.31 376.237 1459.53 375.921L1459.86 376.652L1459.74 394.436L1459.42 394.816L1441.85 394.841L1441.85 412.892L1404.48 412.892C1402.9 418.795 1403.96 442.044 1404.21 449.665C1395.66 448.666 1378.52 449.533 1368.3 449C1368.34 447.619 1368.41 446.24 1368.51 444.862C1369.1 437.071 1371.42 436.327 1377.58 430.99C1380.87 431.052 1383.63 431.335 1386.78 430.426C1386.83 429.863 1387.4 424.249 1387.44 424.209C1397.59 414.045 1410.86 403.718 1415.26 389.507C1416.23 386.391 1414.74 380.987 1416.65 377.692C1418 375.384 1419.72 375.696 1422.03 375.215C1423.86 372.589 1423.34 368.777 1423.31 365.35L1431.06 358.228ZM1423.56 394.577L1441.6 394.577L1441.6 376.583L1423.56 376.583L1423.56 394.577Z"/><path fill="#F7EB33" d="M1514.74 340.005L1532.75 340L1532.75 394.841L1514.38 394.841L1514.38 412.892L1496.05 412.814L1495.98 394.841L1478.27 394.877L1478.06 394.364C1477.8 389.223 1478 382.043 1477.99 376.746L1478.31 376.262L1495.98 376.237L1496.03 358.647L1496.37 358.043C1501.55 358.347 1508.82 358.187 1514.15 358.225L1514.18 340.335L1514.74 340.005Z"/><path fill="#F7EB33" d="M1314.03 467.417C1313.94 463.079 1313.31 459.171 1315.85 455.762C1321.93 453.42 1328.6 464.622 1336.26 466.964C1348.42 470.681 1359.99 462.91 1365.89 452.659C1367.06 450.609 1365.91 451.043 1368.3 449C1369.5 456.851 1368.95 477.124 1368.84 485.697L1350.68 485.811L1350.68 503.859L1368.84 503.926L1368.93 540.021L1350.61 540.021C1350.58 544.876 1350.77 553.555 1350.38 558.101C1349.4 544.844 1350.33 518.39 1350.39 503.992L1314.03 503.992L1314.03 485.583L1332.25 485.583L1332.25 467.202C1327.77 467.578 1318.83 467.382 1314.03 467.417Z"/><path fill="#FEFEFE" d="M1749.37 523.265L1783.81 523.265L1783.81 538.876L1765.63 538.876C1765.4 542.742 1765.47 547.032 1765.52 550.94C1765.87 577.525 1764.87 604.449 1765.76 630.998L1766.13 648.839C1759.31 648.529 1755.52 648.341 1748.69 649.033C1749.9 643.484 1749.47 616.149 1749.47 608.839L1749.37 523.265Z"/><path fill="#F7EB33" fill-opacity="0.94509804" d="M2130.13 358.797C2135.63 357.618 2159.95 358.129 2166.98 358.177L2166.98 394.519L2184.74 394.519L2184.74 376.195C2193.21 376.163 2233.41 375.59 2239.3 376.804C2234.12 377.798 2227.58 377.469 2222.2 377.412L2222.2 393.595C2226.55 393.577 2235.45 393.218 2239.3 394.242C2233.8 395.404 2209.71 394.925 2202.94 394.899C2202.25 388.606 2202.45 383.706 2202.58 377.412L2186.2 377.412C2186.09 394.443 2186.66 414.74 2186.11 431.284L2184.86 430.969L2184.74 412.938L2148.76 412.938L2148.76 431.125L2130.41 431.125L2130.41 467.164C2134.86 467.175 2144.38 466.916 2148.35 467.787C2143.11 468.802 2136.46 468.467 2131.01 468.409C2131.02 476.895 2131.48 496.3 2130.71 503.994C2129.97 515.116 2130.35 528.71 2130.39 540.021L2128.97 540.066L2129.15 431.693C2129.23 422.668 2128.3 402.465 2129.68 394.577C2131.27 401.288 2129.82 407.995 2130.73 412.737C2130.99 418.739 2131.12 424.008 2131.05 430.015L2147.58 430.015C2147.6 425.342 2147.39 417.1 2147.94 412.737C2148.8 403.697 2148.33 386.36 2148.31 376.635C2141.92 376.704 2136.49 376.895 2130.13 376.098C2134.16 375.392 2143.36 375.59 2147.8 375.562L2147.8 359.416C2141.78 359.484 2136.08 359.748 2130.13 358.797Z"/><path fill="#F7EB33" d="M2149.2 359.416L2165.66 359.416L2165.74 396.075L2184.02 395.985L2184.02 411.609L2149.43 411.609L2149.2 359.416Z"/><path fill="#F7EB33" d="M2204.14 377.412L2220.8 377.412L2220.8 393.595L2204.14 393.595L2204.14 377.412Z"/><path fill="#FEFEFE" d="M1957.74 651.989C1964.21 652.059 1969.43 652.169 1975.89 651.524L1975.88 669.919C1980.63 669.924 1988.93 670.219 1993.29 669.26C1991.96 677.68 1992.71 713.603 1992.66 724.31L1975.8 724.26L1975.7 706.378L1958.07 706.378C1958.65 701.855 1958.4 691.705 1958.39 686.683L1940.09 686.703L1940.12 669.88L1957.28 669.893C1957.97 666.747 1957.74 655.866 1957.74 651.989Z"/><path fill="#FEFEFE" d="M1921.02 651.094C1927.51 651.825 1932.07 651.746 1938.57 651.678C1937.36 658.467 1937.82 674.409 1937.83 681.917C1938.06 701.802 1938.06 721.688 1937.83 741.572C1930.85 741.544 1918.09 741.142 1911.68 742.182C1910.27 734.62 1907.19 732.041 1902.23 726.248C1906.25 724.587 1914.65 726.142 1921.02 724.757L1921.02 706.378C1914.57 706.444 1909.43 706.525 1902.98 705.934C1898.98 705.013 1891.2 706.031 1884.56 704.703C1889.03 703.439 1897.87 703.88 1902.85 703.916L1902.85 687.913L1921.02 687.913L1921.02 651.094Z"/><path fill="#FEFEFE" d="M1422.71 558.233L1441.86 558.097L1441.86 576.885C1447.27 577.843 1453.35 577.535 1458.9 577.468C1458.92 591.429 1458.56 607.258 1459.01 621.058C1446.56 622.417 1442.16 610.703 1431.63 629.739C1429.92 632.826 1426.02 637.108 1423.44 639.609C1422.91 632.28 1423.25 620.496 1423.23 612.836L1441.59 612.836L1441.59 594.931L1423.23 594.931L1423.23 576.129C1419.97 575.247 1409.83 575.54 1405.93 575.543L1405.93 559.412C1409.86 559.452 1419.87 560.069 1422.71 558.233Z"/><path fill="#F7EB33" d="M1405.59 430.955L1441.86 430.955L1441.86 449.717C1446.9 450.765 1453.63 450.409 1458.9 450.35C1458.92 467.726 1458.49 487.035 1458.98 504.237C1455 503.873 1446.28 504.028 1441.94 503.995C1442.02 497.811 1441.97 491.626 1441.78 485.445C1441.56 479.702 1441.64 473.226 1441.59 467.422L1423.23 467.422L1423.23 449.327L1405.9 449.213C1406.01 442.678 1405.96 437.48 1405.59 430.955Z"/><path fill="#FEFEFE" d="M2003.57 521.858L2021.29 521.858L2021.29 540.086L2057.43 540.086L2057.3 555.563C2054.77 557.944 2053.96 559.602 2052.58 562.766C2044.98 580.223 2038.71 580.694 2021.08 578.341L2021.08 558.316C2017.01 558.344 2007.58 558.202 2003.91 558.637C2004.13 549.699 2004.98 529.351 2003.57 521.858Z"/><path fill="#F7EB33" d="M1461.09 396.036L1476.66 396.036C1477.05 432 1477.22 467.967 1477.16 503.933L1460.68 503.948L1461.09 396.036Z"/><path fill="#FEFEFE" d="M1757.17 682.926L1775.77 682.926L1775.77 700.983L1793.79 700.983L1793.79 727.293C1776.83 735.352 1775.17 746.875 1758.43 751.734C1757.74 745.518 1758.33 726.589 1758.4 719.189L1775.43 719.154L1775.43 701.154L1757.42 701.154L1757.3 718.442L1756.4 719.093C1752.18 719.539 1744.06 719.373 1739.52 719.404C1740.3 713.082 1739.2 708.404 1740.72 701.109L1757.17 700.983L1757.17 682.926Z"/><path fill="#36A840" d="M2239.3 267.121L2276.09 267.121L2276.09 303.938L2257.89 303.938L2257.81 321.873L2221.7 321.967C2221.67 326.621 2221.85 335.703 2221.46 340C2221.06 336.951 2221.23 325.451 2221.22 321.779L2221.22 303.763L2257.74 303.763L2257.74 285.698L2239.3 285.698L2239.3 267.121Z"/><path fill="#FEFEFE" d="M1975.79 743.339C1980.99 743.407 1988.99 743.753 1993.94 743.139L1993.92 768.371C1993.55 768.776 1989.47 773.295 1989.37 773.493C1985.17 782.204 1979.75 777.02 1975.81 780.178C1974.66 785.641 1976.55 788.757 1974.3 792.141C1967.74 795.81 1956.95 785.818 1950.72 790.273C1944.98 794.378 1947.83 796.056 1939.72 798.17C1940.33 792.047 1940.03 784.803 1939.95 778.577C1943.82 779.029 1953.57 778.863 1957.85 778.89C1958.9 774.028 1958.39 765.852 1958.07 760.786L1975.7 760.786L1975.79 743.339Z"/><path fill="#F7EB33" d="M1368.84 485.697C1380.88 485.557 1393.33 485.254 1405.33 485.319L1405.21 539.971L1403.78 540.116L1386.91 540.021C1387.07 528.211 1386.86 515.848 1386.83 503.992L1368.84 503.926L1368.84 485.697Z"/><path fill="#FEFEFE" d="M1460.33 521.859L1477.4 521.859C1475.5 531.648 1478.7 599.019 1476.1 601.425C1470.18 602.789 1468.17 603.731 1462.8 606.213C1463.05 610.847 1463.53 613.902 1461.77 618.246C1457.9 607.984 1463.8 539.095 1460.33 521.859Z"/><path fill="#FEFEFE" fill-opacity="0.94901961" d="M1938.57 651.678C1940.14 658.103 1938.7 664.743 1939.86 669.354L1940.12 669.88L1940.09 686.703L1958.39 686.683C1958.4 691.705 1958.65 701.855 1958.07 706.378C1957.64 712.311 1957.48 718.204 1958.07 724.141C1958.47 730.395 1958.51 735.326 1958.43 741.572C1963.13 741.519 1971.02 740.856 1974.98 742.741L1957.71 742.791C1957.73 746.843 1957.57 757.249 1958.07 760.786C1958.39 765.852 1958.9 774.028 1957.85 778.89C1957.31 775.644 1957.09 764.921 1956.91 760.974C1956.39 757.187 1956.56 747.775 1956.55 743.49C1950.35 743.565 1945.28 743.485 1939.09 743.141C1930.83 742.03 1920.71 743.766 1911.68 742.182C1918.09 741.142 1930.85 741.544 1937.83 741.572C1938.06 721.688 1938.06 701.802 1937.83 681.917C1937.82 674.409 1937.36 658.467 1938.57 651.678ZM1957.27 706.097L1957.27 688.126L1939.34 688.126L1939.34 706.097L1957.27 706.097ZM1957.27 742.371C1957.26 738.551 1957.42 727.72 1956.91 724.379L1939.72 724.379C1939.09 730.5 1939.28 736.234 1939.34 742.371L1957.27 742.371Z"/><path fill="#FEFEFE" d="M1940.09 707.412L1956.55 707.412C1956.58 711.694 1956.43 720.505 1956.91 724.379L1939.72 724.379C1940.07 718.322 1940.17 713.481 1940.09 707.412Z"/><path fill="#FEFEFE" fill-opacity="0.94117647" d="M1748 521.809L1875.85 521.809L1875.95 610.762C1875.95 616.549 1876.32 645.095 1875.22 649.033C1874.12 643.996 1874.49 616.81 1874.5 610.047L1874.59 523.265L1822.08 523.265L1822.08 538.876C1826.47 538.839 1835.58 538.225 1839.16 540.063C1816.96 541.056 1789.31 540.381 1766.67 540.352C1766.67 568.569 1765.67 603.336 1766.84 631.006L1765.76 630.998C1764.87 604.449 1765.87 577.525 1765.52 550.94C1765.47 547.032 1765.4 542.742 1765.63 538.876L1783.81 538.876L1783.81 523.265L1749.37 523.265L1749.47 608.839C1749.47 616.149 1749.9 643.484 1748.69 649.033C1747.4 643.317 1747.93 616.591 1747.93 608.837L1748 521.809Z"/><path fill="#FEFEFE" d="M1803.56 523.265L1820.44 523.265L1820.44 538.876L1803.56 538.876L1803.56 523.265Z"/><path fill="#FEFEFE" d="M1785.19 523.265L1801.97 523.265L1801.97 538.876L1785.19 538.876L1785.19 523.265Z"/><path fill="#F7EB33" d="M1748.04 394.574C1760.33 394.411 1772.62 394.498 1784.9 394.835L1785.55 396.084L1801.92 396.023L1801.92 411.601C1797.57 411.557 1787.3 410.906 1783.84 412.763L1766.62 412.894L1766.62 431.09L1748.04 431.09L1748.04 394.574Z"/><path fill="#F7EB33" d="M1966.52 485.577L1983.9 485.615C1983.77 495.954 1982.77 531.407 1984.01 540.302L1966.95 540.16C1967.59 535.922 1967.42 525.463 1967.44 520.701L1949.14 520.701C1949.21 514.899 1949.06 509.64 1948.84 503.856L1966.52 503.856L1966.52 485.577Z"/><path fill="#F7EB33" d="M1804.15 377.423L1820.29 377.423C1820.27 395.812 1819.22 432.504 1820.61 449.323L1804.14 449.207L1804.15 377.423Z"/><path fill="#FEFEFE" d="M1496.05 558.208L1514.38 558.101L1514.38 584.574C1503.62 593.571 1496.56 601.814 1481.69 602.14L1479.47 600.246C1478.51 593.927 1478.98 584.159 1479.09 577.475C1484.53 577.543 1490.69 577.867 1495.98 576.888L1496.05 558.208Z"/><path fill="#F7EB33" d="M1784.66 449.116L1801.59 449.105L1801.96 504.216C1797.74 503.847 1789.53 504.063 1784.98 504.063C1785 497.872 1784.95 491.68 1784.83 485.49C1784.24 475.143 1784.68 459.835 1784.66 449.116Z"/><path fill="#F7EB33" d="M1912 485.697L1948.02 485.583C1946.97 495.162 1947.47 510.642 1947.5 520.681C1943.07 520.676 1934.07 520.348 1930.14 521.377L1930.14 503.992L1912 503.926L1912 485.697Z"/><path fill="#F7EB33" d="M1423.24 485.952C1429.72 486.463 1434.51 486.484 1441 486.414C1440.91 495.679 1440 533.712 1441.31 540.296L1423.24 540.296L1423.24 485.952Z"/><path fill="#FEFEFE" d="M1811.84 667.336L1830.25 667.336L1830.25 709.492L1824.12 715.022C1820.11 718.196 1816.24 720.289 1811.84 722.822L1811.84 667.336Z"/><path fill="#FEFEFE" d="M2186.11 540.101L2202.83 540.025C2202.89 545.612 2203.14 552.522 2202.89 557.975C2202.89 561.783 2202.66 573.6 2203.12 576.727C2203.32 582.694 2203.51 588.363 2203.43 594.34C2198.99 593.272 2190.95 593.588 2186.13 593.593L2186.11 540.101Z"/><path fill="#F7EB33" d="M2186.2 377.412L2202.58 377.412C2202.45 383.706 2202.25 388.606 2202.94 394.899C2203.45 406.867 2203.25 419.093 2203.21 431.088C2198.02 431.13 2191.15 430.99 2186.11 431.284C2186.66 414.74 2186.09 394.443 2186.2 377.412Z"/><path fill="#F7EB33" d="M1985.5 450.374L2002.1 450.374L2002.11 503.93L1985.17 503.994C1985.84 499.56 1985.83 489.266 1984.87 484.953C1984.56 478.524 1984.31 474.725 1985.02 468.257C1985.65 461.695 1985.59 456.941 1985.5 450.374Z"/><path fill="#FEFEFE" d="M1711.8 558.101L1730.13 558.101L1730.13 576.695L1711.96 576.695L1711.88 594.821L1693.74 594.926C1693.84 599.978 1694.97 608.346 1692.44 611.92C1689.73 613.684 1686.07 613.111 1682.74 612.985C1682.7 608.572 1681.64 599.047 1683.44 596.282C1686.98 594.095 1688.93 594.75 1693.47 594.599C1693.4 589.5 1692.69 582.018 1693.95 577.545C1696.03 575.934 1695.16 576.394 1698.25 576.344L1711.8 576.281L1711.8 558.101Z"/><path fill="#F7EB33" d="M1551.05 321.858C1562.64 321.827 1575.7 321.522 1587.17 321.873L1587.25 340.181L1550.66 340.181L1550.75 322.817L1551.05 321.858Z"/><path fill="#F7EB33" d="M1550.66 358.225L1569.03 358.225L1568.97 394.709L1550.66 394.841L1550.66 358.225Z"/><path fill="#36A840" d="M1893.7 230.89L1912.06 230.89L1912 267.197L1893.8 267.197L1893.7 230.89Z"/><path fill="#F7EB33" d="M1893.8 503.926L1912 503.926L1912.06 540.021L1893.6 540.02C1893.75 527.989 1893.82 515.958 1893.8 503.926Z"/><path fill="#F7EB33" d="M2093.94 321.873L2130.08 321.779C2130.11 327.167 2129.92 334.918 2130.28 340.102L2093.88 340.181L2093.94 321.873Z"/><path fill="#F7EB33" fill-opacity="0.94901961" d="M1802.47 357.996C1808.67 357.369 1814.92 357.319 1821.14 357.847C1824.5 357.99 1836.56 358.241 1839.01 358.805C1834.11 359.841 1827.46 359.486 1822.32 359.426L1822.07 504.238L1820.3 503.946L1820.29 468.426L1803.71 468.426L1803.7 503.946L1801.96 504.216L1801.59 449.105L1802.82 449.212L1802.94 467.17L1820.92 467.17C1820.91 464.102 1821.03 451.584 1820.61 449.323C1819.22 432.504 1820.27 395.812 1820.29 377.423L1804.15 377.423L1804.14 449.207L1802.82 449.212C1802.2 439.117 1802.65 423.428 1802.64 412.932C1796.37 412.908 1790.1 412.852 1783.84 412.763C1787.3 410.906 1797.57 411.557 1801.92 411.601L1801.92 396.023L1785.55 396.084L1784.9 394.835C1787.85 394.382 1799.11 394.538 1802.64 394.526L1802.64 376.628C1796.78 376.688 1790.41 376.983 1784.66 376.091C1790.72 375.41 1796.83 375.339 1802.9 375.877C1806.75 376.337 1816.64 376.173 1820.92 376.2L1820.92 358.589L1802.88 358.656L1802.47 357.996Z"/><path fill="#FEFEFE" d="M1948.86 612.839L1966.05 612.839C1965.18 623.643 1965.86 638.313 1966.07 649.421L1949.13 649.246C1949.19 637.407 1949.52 624.588 1948.86 612.839Z"/><path fill="#F7EB33" d="M1966.98 431.042L1984.22 430.957C1983.1 437.538 1983.59 460.177 1984.15 467.752C1980.51 467.309 1970.97 467.446 1966.92 467.417C1967.93 458.942 1967.1 440.673 1966.98 431.042Z"/><path fill="#FEFEFE" d="M2003.06 576.892C2003.06 585.171 2002.59 604.244 2003.31 611.78L1985.48 611.63L1985.49 577.48C1991.63 577.546 1996.95 577.761 2003.06 576.892Z"/><path fill="#F7EB33" d="M1459.62 340.666C1465.6 341.71 1471.1 341.439 1477.15 341.375C1477.03 352.498 1476.55 364.595 1476.66 375.556C1472.37 375.59 1463.39 375.45 1459.53 375.921C1459.83 364.585 1459.6 352.093 1459.62 340.666Z"/><path fill="#F7EB33" d="M1803.71 468.426L1820.29 468.426L1820.3 503.946L1803.7 503.946L1803.71 468.426Z"/><path fill="#FEFEFE" d="M1938.55 809.761C1926.59 809.856 1909.35 790.392 1913.09 781.148C1917.52 777.278 1931.39 778.833 1938.17 778.97C1938.06 785.366 1937.39 804.789 1938.55 809.761Z"/><path fill="#FEFEFE" d="M1966.92 576.892C1972.99 577.73 1977.74 577.55 1983.83 577.48L1983.83 611.63L1967.45 611.636C1967.48 601.686 1967.95 586.396 1966.92 576.892Z"/><path fill="#36A840" d="M2196.5 82.1734C2198.03 81.9997 2199.79 82.0495 2201.35 82.0423C2204.89 85.9346 2203.29 102.933 2203.21 109.154C2197.99 109.072 2189.1 110.657 2185.13 107.857L2184.79 104.25L2184.79 91.1088L2168.72 91.1029C2178.67 86.493 2185.82 84.425 2196.5 82.1734Z"/><path fill="#FEFEFE" d="M1368.84 612.908L1405.19 612.839L1405.19 630.035C1390.76 626.515 1384.78 626.165 1369.81 625.419C1368.27 621.88 1368.76 616.89 1368.84 612.908Z"/><path fill="#F7EB33" fill-opacity="0.94901961" d="M1478.06 394.364L1478.27 394.877C1478.17 400.009 1477.73 407.903 1478.61 412.737C1479.19 419.111 1479.17 423.598 1479.09 429.964L1496.03 429.973L1496.06 431.033L1478.13 431.122L1478.13 449.085C1482.7 449.081 1491.89 448.773 1495.98 449.725C1491.1 450.797 1484.24 450.425 1479.09 450.365C1479.07 468.067 1479.35 486.591 1479.03 504.218L1477.16 503.933C1477.22 467.967 1477.05 432 1476.66 396.036L1461.09 396.036L1460.68 503.948L1458.98 504.237C1458.49 487.035 1458.92 467.726 1458.9 450.35C1453.63 450.409 1446.9 450.765 1441.86 449.717C1446.11 448.783 1454.89 449.081 1459.57 449.085C1459.71 430.995 1459.66 412.904 1459.42 394.816L1459.74 394.436C1464.59 394.454 1473.56 394.736 1478.06 394.364Z"/><path fill="#36A840" d="M2221.13 82.5569C2239.91 87.2773 2233.76 89.9146 2257.89 90.8711L2257.89 109.155L2239.3 109.155L2239.3 91.1058C2233.86 90.9538 2227.31 92.4831 2222.86 90.4784C2220.41 87.674 2221.25 87.3213 2221.13 82.5569Z"/><path fill="#FEFEFE" d="M2011.99 651.644L2030.46 651.644C2030.51 661.344 2030.61 670.742 2030.13 680.447L2027.1 678.913C2024.1 671.507 2019.16 671.343 2012.01 669.602L2011.99 651.644Z"/><path fill="#36A840" d="M1921.02 85.7624C1928.36 88.033 1931.74 88.6556 1939.37 89.7536L1939.3 107.962C1937.09 109.97 1924.82 109.197 1921.02 109.154L1921.02 85.7624Z"/><path fill="#F7EB33" d="M1748.05 358.225L1766.62 358.225L1766.62 376.562L1748.05 376.583L1748.05 358.225Z"/><path fill="#F7EB33" d="M2286.58 358.225L2305 358.225L2305 376.583L2286.58 376.583L2286.58 358.225Z"/><path fill="#F7EB33" d="M2286.58 449.116L2305 449.116L2305 467.417L2286.58 467.417L2286.58 449.116Z"/><path fill="#FEFEFE" d="M1893.7 631.012L1912 631.08L1912.06 649.431L1893.7 649.431L1893.7 631.012Z"/><path fill="#F7EB33" d="M2257.81 321.873L2276.09 321.779L2276.09 340.181L2257.74 340.181L2257.81 321.873Z"/><path fill="#F7EB33" d="M2166.84 321.873L2184.98 321.779L2184.98 340.181L2166.74 340.181L2166.84 321.873Z"/><path fill="#36A840" d="M2304.87 151.818L2323.05 151.818L2323.05 170.134L2304.87 170.134L2304.87 151.818Z"/><path fill="#36A840" d="M2112.14 230.956L2130.35 230.89L2130.35 249.212L2112.14 249.13L2112.14 230.956Z"/><path fill="#FEFEFE" d="M2258.11 540.216L2276.09 540.087L2276.09 558.315L2257.81 558.206L2257.84 540.75L2258.11 540.216Z"/><path fill="#FEFEFE" d="M1966.94 631.012L1984.83 631.012L1984.87 650.012C1981.49 649.183 1971.04 649.316 1966.96 649.271L1966.94 631.012Z"/><path fill="#F7EB33" d="M1802.69 340L1821.05 340.091L1821.14 357.847C1814.92 357.319 1808.67 357.369 1802.47 357.996C1802.85 353.449 1802.66 344.851 1802.69 340Z"/><path fill="#F7EB33" d="M1784.66 358.225C1790.6 358.281 1796.53 358.205 1802.47 357.996L1802.88 358.656L1802.9 375.877C1796.83 375.339 1790.72 375.41 1784.66 376.091L1784.66 358.225Z"/><defs><linearGradient id="gradient_0" gradientUnits="userSpaceOnUse" x1="1899.0762" y1="726.04858" x2="1891.2153" y2="704.12958"><stop offset="0" stop-color="white" stop-opacity="0.96862745"/><stop offset="1" stop-color="white"/></linearGradient></defs><path fill="url(#gradient_0)" d="M1884.56 704.703C1891.2 706.031 1898.98 705.013 1902.98 705.934L1903 724.121C1907.62 724.115 1916.88 723.801 1921.02 724.757C1914.65 726.142 1906.25 724.587 1902.23 726.248C1894.84 716.736 1891.8 721.614 1885.77 717.272C1883.7 714.146 1884.44 708.676 1884.56 704.703Z"/><path fill="#FEFEFE" d="M1958.07 724.141L1975.8 724.26C1975.82 729.905 1976.02 736.823 1975.79 742.355L1975.79 743.339L1974.98 742.741C1971.02 740.856 1963.13 741.519 1958.43 741.572C1958.51 735.326 1958.47 730.395 1958.07 724.141Z"/><path fill="#FEFEFE" d="M1939.09 743.141C1945.28 743.485 1950.35 743.565 1956.55 743.49C1956.56 747.775 1956.39 757.187 1956.91 760.974L1939.09 760.974L1939.09 743.141Z"/><path fill="#F7EB33" d="M1948.85 430.957L1966.03 430.878C1966.05 436.052 1965.85 444.409 1966.22 449.323L1949.13 449.186C1949.29 443.109 1949.19 437.027 1948.85 430.957Z"/><path fill="#F7EB33" d="M1766.28 485.952C1772.75 486.466 1777.52 486.484 1784 486.414L1784.02 503.92L1766.28 503.992L1766.28 485.952Z"/><path fill="#F7EB33" d="M2022.01 412.729L2039.23 412.814L2039.31 430.262L2022 430.286L2022.01 412.729Z"/><path fill="#FEFEFE" d="M1766.84 631.006L1783.79 630.943L1783.82 648.556L1767.01 648.618L1766.84 631.006Z"/><path fill="#FEFEFE" d="M1803.54 631.041L1820.46 631.041L1820.45 648.556L1803.55 648.556L1803.54 631.041Z"/><path fill="#FEFEFE" d="M1785.17 631.098C1790.33 631.015 1797 631.101 1802.04 630.803L1801.98 648.556L1785.18 648.556L1785.17 631.098Z"/><path fill="#F7EB33" d="M1478.61 412.737L1496.05 412.814L1496.03 429.973L1479.09 429.964C1479.17 423.598 1479.19 419.111 1478.61 412.737Z"/><path fill="#FEFEFE" d="M1993.79 725.325L2011.5 725.393L2011.51 741.567C2007.06 741.587 1997.7 741.419 1993.74 741.97L1993.79 725.325Z"/><path fill="#FEFEFE" d="M1985.08 541.381L2002.1 541.409L2002.12 558.232L1984.68 558.315C1985.05 553.803 1984.98 546.127 1985.08 541.381Z"/><path fill="#FEFEFE" d="M1496.11 540.723L1496.05 558.208L1478.61 558.315C1479.26 554.372 1479.07 545.738 1479.09 541.402C1484.89 541.465 1490.39 541.74 1496.11 540.723Z"/><path fill="#F7EB33" d="M2130.73 412.737L2147.94 412.737C2147.39 417.1 2147.6 425.342 2147.58 430.015L2131.05 430.015C2131.12 424.008 2130.99 418.739 2130.73 412.737Z"/><path fill="#F7EB33" d="M2130.13 358.797C2136.08 359.748 2141.78 359.484 2147.8 359.416L2147.8 375.562C2143.36 375.59 2134.16 375.392 2130.13 376.098L2130.13 358.797Z"/><path fill="#F7EB33" d="M2022 341.288L2039.27 341.234C2039.34 346.358 2039.25 353.005 2039.54 357.999C2035.72 357.36 2026.31 357.55 2022 357.526L2022 341.288Z"/><path fill="#F7EB33" d="M1587.1 358.808C1593.08 359.749 1598.48 359.5 1604.51 359.43L1604.51 375.552C1600.08 375.58 1591.13 375.385 1587.1 376.089L1587.1 358.808Z"/><path fill="#F7EB33" d="M1496.04 341.357C1496.11 346.215 1496.02 353.374 1496.37 358.043C1492.3 357.284 1483.56 357.52 1479.09 357.51L1479.09 341.375L1496.04 341.357Z"/><path fill="#F7EB33" d="M1748.05 449.116L1766.62 449.116L1766.62 467.878C1765.58 467.805 1765.02 467.786 1764.16 467.108C1758.34 462.536 1755.07 461.871 1748.07 460.783L1748.05 449.116Z"/><path fill="#F7EB33" fill-opacity="0.95294118" d="M2003.04 393.821L2004.26 394.636L2004.01 504.196L2002.11 503.93L2002.1 450.374L1985.5 450.374C1985.59 456.941 1985.65 461.695 1985.02 468.257L1984.15 467.752C1983.59 460.177 1983.1 437.538 1984.22 430.957C1985.24 434.449 1984.88 444.842 1984.87 449.087L2002.84 449.087L2002.76 394.811L2003.04 393.821Z"/><path fill="#F7EB33" d="M1429.31 321.778L1441.35 321.978L1441.85 322.149L1441.85 340.181L1426.43 340.176C1426.98 332.913 1427.77 328.931 1429.31 321.778Z"/><path fill="#FEFEFE" fill-opacity="0.95294118" d="M1993.29 669.26C1994.41 674.964 1994.04 681.909 1993.98 687.805C1997.28 687.875 2002.89 687.772 2005.83 688.611C2001.47 689.209 1999.29 689.419 1994.9 689.4C1994.65 695.312 1994.09 698.958 1996.49 704.46L1997.88 705.594C2000.92 704.39 2000.81 702.946 2001.14 699.7L2002.22 704.73L2001.4 705.989C1991.04 706.631 1993.98 715.66 1993.98 724.111C1999.74 724.272 2005.55 724.928 2010.87 722.87L2012.29 720.996C2011.87 718.357 2011.52 717.356 2012.12 714.685L2013.58 714.019C2013.31 719.812 2011.8 738.058 2014.32 742.076L2016.76 743.277C2011.41 742.46 1999.38 742.536 1993.94 743.139C1988.99 743.753 1980.99 743.407 1975.79 743.339L1975.79 742.355C1979.76 742.354 1990.36 742.542 1993.74 741.97C1997.7 741.419 2007.06 741.587 2011.51 741.567L2011.5 725.393L1993.79 725.325L1992.66 724.31C1992.71 713.603 1991.96 677.68 1993.29 669.26Z"/><path fill="#FEFEFE" d="M1739.91 747.305C1739.95 742.591 1739.14 742.396 1741.45 739.384C1745.24 737.535 1751.8 738.821 1756.51 738.739L1756.51 752.012C1748.53 752.407 1746.41 751.69 1739.91 747.305Z"/><path fill="#FEFEFE" fill-opacity="0.94117647" d="M1802.04 630.803L1803.54 631.041L1803.55 648.556L1820.45 648.556L1820.46 631.041L1822.01 630.796L1822.08 648.556C1831.2 648.529 1868.19 647.878 1875.22 649.033C1870.78 649.816 1824.93 649.855 1818.66 649.541C1800.83 648.645 1764.89 651.017 1748.69 649.033C1755.52 648.341 1759.31 648.529 1766.13 648.839L1767.01 648.618L1783.82 648.556L1783.79 630.943L1785.17 631.098L1785.18 648.556L1801.98 648.556L1802.04 630.803Z"/><path fill="#F7EB33" fill-opacity="0.95294118" d="M1696.08 376.812C1690.4 377.944 1667.79 377.465 1660.97 377.422L1660.97 393.584C1666.34 393.546 1692.35 393.019 1696.08 394.232C1689.12 395.397 1667.9 394.906 1660.05 394.881C1660.09 400.51 1660.7 427.201 1659.34 431.088C1657.79 424.941 1658.93 386.682 1659 377.427C1652.68 377.496 1647.79 377.654 1641.47 376.815C1647.2 375.428 1690.13 375.973 1696.08 376.812Z"/><path fill="#FEFEF8" fill-opacity="0.98431373" d="M2184.77 539.929L2186.11 540.101L2186.13 593.593C2190.95 593.588 2198.99 593.272 2203.43 594.34C2198.47 595.543 2190.28 595.222 2184.94 595.231L2184.33 594.962C2184.78 592.259 2184.64 580.163 2184.65 576.719C2175.63 576.724 2156.93 577.256 2148.72 576.134C2152.73 575.05 2178.39 575.518 2183.96 575.549L2183.96 559.4C2180.04 559.437 2170.12 560.045 2167.29 558.232C2171.86 557.922 2179.83 558.118 2184.65 558.082L2184.77 539.929Z"/><path fill="#FEFEFE" fill-opacity="0.94901961" d="M1477.4 521.859C1478.62 526.527 1478.18 534.942 1478.13 540.044C1482.42 540.026 1492.56 539.664 1496.11 540.723C1490.39 541.74 1484.89 541.465 1479.09 541.402C1479.07 545.738 1479.26 554.372 1478.61 558.315C1477.75 563.979 1478.06 570.516 1478.13 576.301C1482.71 576.298 1491.84 576.007 1495.98 576.888C1490.69 577.867 1484.53 577.543 1479.09 577.475C1478.98 584.159 1478.51 593.927 1479.47 600.246L1481.69 602.14L1476.1 601.425C1478.7 599.019 1475.5 531.648 1477.4 521.859Z"/><path fill="#FEFEFE" d="M2003.05 612.672C2004.58 612.786 2008.42 612.801 2008.42 613.805C2008.45 624.48 2019.73 625.863 2022.26 630.903C2015.8 631.098 2009.34 631.179 2002.88 631.147C2002.93 625.334 2002.79 618.382 2003.05 612.672Z"/><path fill="#36A840" d="M2157.48 96.1152C2157.95 97.977 2157.84 106.716 2157.86 109.154L2139.32 109.154C2138.55 97.5932 2147.14 100.324 2157.48 96.1152Z"/><path fill="#36A840" d="M2084.75 98.5083C2089.89 98.9346 2097.7 97.7099 2101.51 100.025C2103.93 103.546 2103.06 104.009 2103.09 109.154C2098.18 109.258 2089.73 110.281 2086.09 108.034C2084 104.369 2084.77 103.364 2084.75 98.5083Z"/><path fill="#FEFEFE" fill-opacity="0.94901961" d="M1459.57 576.301C1459.6 567.977 1458.65 528.236 1460.33 521.859C1463.8 539.095 1457.9 607.984 1461.77 618.246L1459.01 621.058C1458.56 607.258 1458.92 591.429 1458.9 577.468C1453.35 577.535 1447.27 577.843 1441.86 576.885C1445.65 576.06 1455.28 576.312 1459.57 576.301Z"/><path fill="#FEFEFE" fill-opacity="0.039215688" d="M1966.96 649.271C1971.04 649.316 1981.49 649.183 1984.87 650.012C1981.51 651.478 1979.9 650.434 1977.25 652.768C1976.25 655.23 1977.16 664.8 1977.08 668.601C1980.97 668.597 1989.96 668.267 1993.29 669.26C1988.93 670.219 1980.63 669.924 1975.88 669.919L1975.89 651.524C1972.55 650.679 1960.89 650.953 1956.81 650.957L1940.45 650.867C1940.44 655.279 1940.65 665.531 1939.86 669.354C1938.7 664.743 1940.14 658.103 1938.57 651.678C1932.07 651.746 1927.51 651.825 1921.02 651.094C1924.32 650.796 1926.87 650.561 1930.14 649.952C1936.08 649.077 1941.76 649.361 1947.76 649.46L1949.13 649.246L1966.07 649.421L1966.96 649.271Z"/><path fill="#FEFEFE" fill-opacity="0.95294118" d="M1730.11 704.543C1735.92 703.934 1737.06 704.734 1740.72 701.109C1739.2 708.404 1740.3 713.082 1739.52 719.404C1738.89 725.511 1739.07 731.275 1739.14 737.399L1757.13 737.399C1757.16 732.834 1757.58 722.923 1756.4 719.093L1757.3 718.442L1758.4 719.189C1758.33 726.589 1757.74 745.518 1758.43 751.734L1756.51 752.012L1756.51 738.739C1751.8 738.821 1745.24 737.535 1741.45 739.384C1739.14 742.396 1739.95 742.591 1739.91 747.305L1737.15 744.72C1737.53 743.909 1738 742.917 1738.55 741.744C1737.29 730.931 1738.39 716.099 1737.63 705.57L1730.11 704.543Z"/><path fill="#FEFEF8" fill-opacity="0.98431373" d="M1405.21 539.971L1405.32 558.086C1410.19 558.121 1418.08 557.926 1422.71 558.233C1419.87 560.069 1409.86 559.452 1405.93 559.412L1405.93 575.543C1409.83 575.54 1419.97 575.247 1423.23 576.129C1416.51 577.473 1377.65 576.799 1368.92 576.719L1368.59 576C1378 574.999 1394.05 575.515 1403.97 575.548C1403.96 563.737 1403.9 551.926 1403.78 540.116L1405.21 539.971Z"/><path fill="#F7EB33" fill-opacity="0.94901961" d="M1459.62 340.666C1464.64 339.178 1489.59 340.007 1496.25 340.148L1496.04 341.357L1479.09 341.375L1479.09 357.51C1483.56 357.52 1492.3 357.284 1496.37 358.043L1496.03 358.647L1478.13 358.59C1478.18 364.101 1478.05 370.86 1478.31 376.262L1477.99 376.746L1459.86 376.652L1459.53 375.921C1463.39 375.45 1472.37 375.59 1476.66 375.556C1476.55 364.595 1477.03 352.498 1477.15 341.375C1471.1 341.439 1465.6 341.71 1459.62 340.666Z"/><path fill="#FEFEFE" fill-opacity="0.95294118" d="M1966.92 576.892C1971.9 575.959 1999.11 575.74 2003.06 576.892C1996.95 577.761 1991.63 577.546 1985.49 577.48L1985.48 611.63L2003.31 611.78L2003.05 612.672C1995.59 613.497 1975.49 613.032 1967.1 613.032L1967.45 611.636L1983.83 611.63L1983.83 577.48C1977.74 577.55 1972.99 577.73 1966.92 576.892Z"/><path fill="#F7EB33" fill-opacity="0.95294118" d="M1641.78 449.731C1648.24 448.713 1671.9 448.623 1678.05 449.727C1672.35 450.696 1666.75 450.427 1660.97 450.367C1660.95 454.501 1661.13 463.731 1660.51 467.42C1659.94 471.205 1659.59 481.989 1660.54 485.586C1660.73 488.775 1660.78 497.664 1662.06 499.915C1657.89 500.214 1656.21 500.213 1652.05 499.857C1654.21 498.346 1656.03 498.43 1658.69 498.133C1659.59 490.859 1658.92 459.348 1659 450.375C1653.65 450.434 1646.9 450.791 1641.78 449.731Z"/><path fill="#FEFEFE" d="M2184.96 611.463C2178.18 603.739 2170.42 600.006 2167.93 596.867L2168.34 595.573C2172.97 593.948 2179.28 594.716 2184.33 594.962L2184.94 595.231L2184.96 611.463Z"/><path fill="#FEFEFE" d="M2013.58 714.019C2022.06 722.388 2021.17 732.729 2016.76 743.277L2014.32 742.076C2011.8 738.058 2013.31 719.812 2013.58 714.019Z"/><path fill="#F7EB33" fill-opacity="0.94901961" d="M2202.81 503.612C2203.33 497.442 2202.26 492.556 2203.66 485.583C2205.08 494.296 2204.23 528.732 2204.17 538.825L2220.55 538.825C2220.56 534.718 2220.33 525.694 2221.07 522.035C2221.7 528.705 2221.66 533.65 2221.59 540.344L2203.6 540.344L2203.71 557.911L2202.89 557.975C2203.14 552.522 2202.89 545.612 2202.83 540.025C2202.1 529.725 2202.25 513.919 2202.81 503.612Z"/><path fill="#F7EB33" fill-opacity="0.95294118" d="M1587.1 358.808C1592.33 357.71 1619.2 357.709 1623.76 358.808C1617.3 359.629 1612.66 359.502 1606.17 359.43C1606.34 374.511 1607.22 399.11 1606.19 413.608L1605.27 414.053L1604.8 413.101C1605.61 404.608 1605.13 385.841 1605.12 376.626C1598.74 376.696 1593.46 376.875 1587.1 376.089C1591.13 375.385 1600.08 375.58 1604.51 375.552L1604.51 359.43C1598.48 359.5 1593.08 359.749 1587.1 358.808Z"/><path fill="#FEFEFE" d="M2005.83 688.611L2001.14 699.7C2000.81 702.946 2000.92 704.39 1997.88 705.594L1996.49 704.46C1994.09 698.958 1994.65 695.312 1994.9 689.4C1999.29 689.419 2001.47 689.209 2005.83 688.611Z"/><path fill="#F7EB33" fill-opacity="0.94901961" d="M1948.02 485.583C1948.85 492.269 1948.2 498.436 1948.84 503.856C1949.06 509.64 1949.21 514.899 1949.14 520.701L1967.44 520.701C1967.42 525.463 1967.59 535.922 1966.95 540.16C1966.28 536.337 1966.48 526.477 1966.48 522.073C1959.97 522.124 1934.98 522.666 1930.14 521.377C1934.07 520.348 1943.07 520.676 1947.5 520.681C1947.47 510.642 1946.97 495.162 1948.02 485.583Z"/><path fill="#F7EB33" fill-opacity="0.95294118" d="M1605.77 449.116C1607.15 456.968 1606.18 494.937 1606.09 504.233L1604.52 503.966L1604.5 468.43C1598.81 468.488 1592.81 468.792 1587.25 467.801C1591.58 466.932 1600.38 467.184 1605.12 467.172C1605.06 461.932 1604.65 454.007 1605.77 449.116Z"/><path fill="#F7EB33" d="M1660.54 485.586C1665.07 485.542 1666.04 484.757 1669.25 486.791C1670.67 492.106 1666.64 497.524 1662.06 499.915C1660.78 497.664 1660.73 488.775 1660.54 485.586Z"/><path fill="#FEFEFE" fill-opacity="0.96078432" d="M2203.71 557.911L2239.16 558.217C2234.33 560.344 2211.09 559.473 2203.95 559.367L2203.95 575.565C2207.82 575.562 2217.97 575.27 2221.22 576.149C2214.95 577.011 2209.42 576.793 2203.12 576.727C2202.66 573.6 2202.89 561.783 2202.89 557.975L2203.71 557.911Z"/><path fill="#FEFEFE" fill-opacity="0.95294118" d="M2002.84 540.047C2002.79 534.945 2002.35 526.529 2003.57 521.858C2004.98 529.351 2004.13 549.699 2003.91 558.637L2002.12 558.232L2002.1 541.409L1985.08 541.381L1984.96 540.037L2002.84 540.047Z"/><path fill="#F7EB33" fill-opacity="0.95294118" d="M1983.9 485.615L1984.87 484.953C1985.83 489.266 1985.84 499.56 1985.17 503.994C1984.51 513.768 1984.62 530.02 1984.96 540.037L1985.08 541.381C1984.98 546.127 1985.05 553.803 1984.68 558.315C1984.2 552.982 1984.52 546.432 1984.01 540.302C1982.77 531.407 1983.77 495.954 1983.9 485.615Z"/><path fill="#F7EB33" fill-opacity="0.90588236" d="M1441.78 485.445C1441.97 491.626 1442.02 497.811 1441.94 503.995C1441.96 509.644 1442.41 536.289 1441.31 540.296C1440 533.712 1440.91 495.679 1441 486.414C1434.51 486.484 1429.72 486.463 1423.24 485.952C1426.49 485.357 1437.84 485.476 1441.78 485.445Z"/><path fill="#FEFEFE" fill-opacity="0.94901961" d="M1948.03 594.735C1948.64 601.105 1948.32 607.28 1948.86 612.839C1949.52 624.588 1949.19 637.407 1949.13 649.246L1947.76 649.46C1946.89 640.267 1947.24 603.398 1948.03 594.735Z"/><path fill="#FEFEFE" fill-opacity="0.90588236" d="M1966.92 576.892C1967.95 586.396 1967.48 601.686 1967.45 611.636L1967.1 613.032C1966.97 619.04 1966.78 625.002 1966.94 631.012L1966.96 649.271L1966.07 649.421C1965.86 638.313 1965.18 623.643 1966.05 612.839C1967.52 602.998 1965.43 587.589 1966.92 576.892Z"/><path fill="#F7EB33" fill-opacity="0.95294118" d="M1404.21 449.665C1403.96 442.044 1402.9 418.795 1404.48 412.892C1405.88 419.738 1404.71 426.394 1405.59 430.955C1405.96 437.48 1406.01 442.678 1405.9 449.213L1404.21 449.665Z"/><path fill="#FEFEFE" fill-opacity="0.94901961" d="M1938.17 778.97L1939.95 778.577C1940.03 784.803 1940.33 792.047 1939.72 798.17C1939.4 801.09 1939.22 807.661 1938.55 809.761C1937.39 804.789 1938.06 785.366 1938.17 778.97Z"/><path fill="#FEFEFE" d="M2091.81 566.557L2094.02 567.081C2094.16 569.981 2094.44 572.021 2093.55 574.828C2091.61 576.673 2091.49 576.977 2088.98 577.593L2087.73 576.07C2087.28 572.854 2090.01 569.425 2091.81 566.557Z"/><path fill="#F7EB33" fill-opacity="0.94901961" d="M1947.75 449.403C1947.2 441.879 1947.19 420.179 1948.03 412.892C1948.48 418.791 1948.37 425.659 1948.85 430.957C1949.19 437.027 1949.29 443.109 1949.13 449.186L1947.75 449.403Z"/><path fill="#F7EB33" fill-opacity="0.9137255" d="M2021.1 411.469L2022.01 412.729L2022 430.286L2039.31 430.262L2039.1 431.048L2021.12 431.145C2020.71 425.891 2021.04 417.026 2021.1 411.469Z"/><path fill="#F7EB33" fill-opacity="0.90588236" d="M1766.28 485.952C1769.54 485.318 1780.97 485.497 1784.83 485.49C1784.95 491.68 1785 497.872 1784.98 504.063L1784.02 503.92L1784 486.414C1777.52 486.484 1772.75 486.466 1766.28 485.952Z"/><path fill="#F7EB33" fill-opacity="0.90588236" d="M1966.03 430.878L1966.98 431.042C1967.1 440.673 1967.93 458.942 1966.92 467.417C1966.23 463.306 1966.27 453.808 1966.22 449.323C1965.85 444.409 1966.05 436.052 1966.03 430.878Z"/><path fill="#FEFEFE" fill-opacity="0.40392157" d="M1956.81 650.957C1960.89 650.953 1972.55 650.679 1975.89 651.524C1969.43 652.169 1964.21 652.059 1957.74 651.989C1957.74 655.866 1957.97 666.747 1957.28 669.893C1956.62 666.354 1956.82 655.127 1956.81 650.957Z"/><path fill="#FEFEF8" fill-opacity="0.96470588" d="M2091.56 557.383L2094.02 556.971L2094.02 567.081L2091.81 566.557C2091.91 564.178 2091.64 559.914 2091.56 557.383Z"/><path fill="#FEFEFE" fill-opacity="0.9137255" d="M1765.76 630.998L1766.84 631.006L1767.01 648.618L1766.13 648.839L1765.76 630.998Z"/><path fill="#2C3F66" d="M252.126 511.224C255.491 528.954 259.513 539.797 269.974 554.695C285.861 577.321 323.987 587.698 351.538 590.183C397.813 594.356 484.477 598.337 523.447 570.787C531.803 564.292 536.802 555.445 537.956 545.175C541.303 515.382 518.002 504.452 492.695 499.753C463.876 493.343 435.878 494.849 406.664 490.268C299.016 473.39 122.214 487.612 46.0419 399.49C-4.23774 341.322 6.75688 208.658 72.7654 166.37C96.2857 151.302 118.994 134.97 147.449 127.911C262.375 96.2037 401.51 94.3763 519.565 106.117C537.451 107.917 555.261 110.407 572.955 113.582C583.187 115.471 597.604 119.025 607.498 120.114L608.461 120.215L717.534 120.15C732.341 153.201 877.429 480.452 881.228 483.555C883.001 483.454 884.722 483.776 885.508 482.293C889.176 475.375 893.128 466.085 896.288 459.068L925.11 395.067L1048.93 120.15L1298.17 120.15L1006.54 704.957L760.76 704.957L739.876 663.269C697.715 697.516 640.336 715.272 585.003 721.504C450.426 736.662 288.829 740.737 156.554 709.069C125.574 700.486 97.0064 687.685 71.3061 668.643C17.302 628.628 8.67629 582.415 0 520.658L0 511.224L252.126 511.224ZM561.258 305.166C558.295 303.524 528.866 304.228 523.204 304.262C519.618 287.191 511.451 268.934 495.304 259.757C451.263 234.726 390.829 236.782 341.539 239.682C317.634 241.089 283.112 246.622 268.459 267.224C253.121 293.403 272.45 312.916 298.361 317.058C335.085 324.227 372.178 325.9 409.412 328.976L580.238 343.02L561.258 305.166Z"/><path fill="#FEFEFE" d="M608.461 120.215L717.534 120.15C732.341 153.201 877.429 480.452 881.228 483.555C883.001 483.454 884.722 483.776 885.508 482.293C889.176 475.375 893.128 466.085 896.288 459.068L925.11 395.067L1048.93 120.15L1298.17 120.15L1006.54 704.957L760.76 704.957L739.876 663.269C773.679 633.563 788.455 599.058 793.349 554.648C798.507 507.844 792.106 453.761 761.031 416.339C718.014 364.538 643.793 349.597 580.238 343.02L561.258 305.166C566.67 302.906 752.253 304.311 772.886 304.32C769.767 217.859 730.429 166.346 650.154 133.984C637.611 128.927 619.6 125.548 608.461 120.215Z"/><path fill="#FEFEFE" d="M359.689 107.5C379.998 106.074 418.301 106.906 439.893 107.893C527.82 111.915 639.13 118.286 709.851 176.691C749.913 209.777 761.392 248.074 765.81 297.331L528.893 297.331C512.336 234.473 438.485 231.949 384.126 231.121C348.106 230.572 295.016 232.2 267.544 257.123C250.463 272.618 253.112 306.746 275.681 316.363C304.106 329.367 339.814 330.135 370.748 332.683L505.329 343.744C584.365 350.232 683.112 352.311 744.515 408.779C804.012 461.866 801.058 593.224 746.275 647.599C668.518 724.775 510.153 723.792 408.25 725.761C307.42 726.298 144.671 724.207 65.9044 655.268C23.5296 618.18 10.8638 572.149 7.166 518.058L246.356 518.059C264.657 598.613 341.97 599.196 411.344 599.937C448.788 600.337 505.135 597.555 533.16 571.392C552.378 553.45 548.1 513.148 522.659 502.383C494.784 489.219 461.121 488.51 430.421 485.546L301.175 473.131C225.009 465.81 122.961 461.381 62.7063 407.274C32.4372 379.438 23.6023 340.828 21.9097 301.71C14.1598 122.595 226.784 110.781 359.689 107.5Z"/><path fill="#36A840" d="M2304.87 109.217C2300.83 109.248 2297.87 109.945 2294.77 108.123C2293.77 104.667 2293.84 104.064 2294.04 100.555L2294.91 99.7509C2299.97 101.043 2320.02 105.219 2322.59 106.676C2323 109.91 2322.48 113.272 2323.99 115.005C2335.55 116.812 2348.15 114.343 2359.58 115.517C2368.63 116.448 2380.4 123.297 2389.35 125.229L2395.96 133.259L2395.96 151.818L2414.19 151.818L2414.19 170L2432.2 170L2432.2 188.248L2414.19 188.248L2414.19 206.275L2432.2 206.275L2432.2 224.646L2450.27 224.646C2450.23 219.924 2449.78 210.998 2450.97 206.791L2452.7 206.684C2455.02 209.052 2462.15 230.074 2464.85 235.406C2468.67 242.946 2472.21 242.257 2474.49 249C2480.49 266.684 2477.11 271.58 2489.52 286.563C2489.53 292.789 2489.57 297.709 2488.91 303.938L2468.44 303.938L2468.44 285.698L2450.4 285.834C2450.54 297.815 2450.59 309.797 2450.54 321.779C2450.53 332.011 2451.02 348.816 2450.34 358.541C2449.63 349.544 2450.15 331.597 2450.14 321.967L2432.05 321.967L2432.05 303.938L2414.1 303.851L2414.01 285.698L2377.72 285.698L2377.72 303.51C2389.74 303.468 2402.06 303.729 2414.1 303.851L2414.19 321.967L2396 322.049L2394.63 322.056L2377.2 321.836L2377.2 303.938L2341.11 303.938L2341.11 285.698L2323.17 285.698L2323.11 321.903L2323.05 340.181L2304.87 340.181L2304.87 321.935L2286.58 321.967L2286.58 267.121L2305 267.121L2305 285.188L2322.87 285.188L2322.87 267.121L2359.7 267.121L2359.7 285.423L2377.39 285.423L2377.39 267.121L2432.02 267.137C2432.17 264.618 2432.05 264.054 2431.54 261.574C2427.63 260.667 2401.49 261.09 2395.76 261.114L2395.86 242.775C2407.37 242.422 2420.42 242.689 2432.05 242.664L2432.05 224.882L2395.91 224.975L2395.86 242.775L2377.72 242.886L2377.72 261.114L2341.11 261.114L2341.11 242.886L2323.05 242.886L2323.05 261.114L2304.87 261.114L2304.87 206.275L2322.87 206.275L2322.87 188.047L2341.32 188.047L2341.32 242.664L2359.34 242.664L2359.34 224.646L2395.31 224.758C2395.99 221.769 2395.77 210.3 2395.76 206.608L2377.39 206.608L2377.35 187.982C2372.92 188.384 2364.1 188.21 2359.34 188.248L2359.34 170.134L2341.11 170.134L2341.11 151.818C2347.18 151.795 2353.25 151.872 2359.32 152.048L2359.34 133.763L2304.87 133.763L2304.87 109.217ZM2450.55 267.121L2468.44 267.121L2468.44 242.886L2450.55 242.886L2450.55 267.121ZM2395.76 188.047L2395.76 170.134L2377.81 170.266C2377.81 175.897 2377.66 182.255 2377.82 187.82C2382.47 188.197 2390.83 188.013 2395.76 188.047ZM2359.78 152.173L2359.7 170L2377.33 170.145L2377.39 151.971C2371.52 151.972 2365.65 152.039 2359.78 152.173ZM2432.2 285.423L2450.13 285.37L2450.27 267.273C2444.22 267.21 2438.2 266.987 2432.19 267.676L2432.2 285.423Z"/><path fill="#F7EB33" d="M2304.87 321.935L2323.11 321.903L2323.05 340.181L2304.87 340.181L2304.87 321.935Z"/><path fill="#F7EB33" d="M2450.54 321.779L2486.95 321.779L2486.95 340.181L2468.71 340.181L2468.71 358.225L2486.95 358.225L2486.95 376.237L2505.11 376.237C2504.86 385.04 2502.57 393.254 2512.37 396.365C2515.29 400.105 2513.74 407.329 2513.16 412.089L2513.06 412.886L2486.95 412.892L2486.95 430.957L2522.51 430.957C2521.35 436.912 2521.58 461.204 2522.51 467.417L2504.98 467.417L2504.98 449.323L2450.55 449.323L2450.55 485.583L2486.95 485.583C2486.93 496.392 2487.36 511.393 2486.82 521.859L2486.68 540.064L2468.44 540.076L2468.24 503.992L2450.27 503.992L2450.27 485.811L2432.2 485.811L2432.12 521.859L2432.04 540.064L2415.33 540.07L2414.78 539.115C2415.28 515.555 2415.47 491.989 2415.34 468.424C2420.5 468.483 2427.11 468.84 2432.05 467.797L2432.13 449.219L2450.27 449.116L2450.27 431.088L2432.13 431.023L2432.05 412.261C2428.48 411.188 2419.48 411.573 2415.35 411.592L2415.35 359.429C2421.54 359.504 2426.03 359.674 2432.2 358.807L2432.2 376.237L2450.55 376.237L2450.55 394.577L2468.44 394.577L2468.44 358.541L2450.34 358.541C2451.02 348.816 2450.53 332.011 2450.54 321.779ZM2450.55 430.957L2468.44 430.957L2468.44 412.892L2450.55 412.892L2450.55 430.957Z"/><path fill="#FEFEFE" d="M2486.82 521.859L2505.04 521.859C2505.03 527.012 2505.23 534.445 2504.92 539.428L2504.5 540.058C2498.65 540.239 2492.8 540.318 2486.95 540.296L2486.95 558.101L2505.63 558.101C2506.75 553.132 2506.37 546.467 2506.31 541.246L2522.03 541.246L2521.77 593.602L2505.04 593.648L2504.98 576.695L2486.95 576.695L2486.95 594.715C2491.35 594.742 2500.03 594.576 2504.05 594.994L2505.05 595.148L2505.04 612.908L2468.44 612.977L2468.44 594.926L2450.55 594.926L2450.55 613L2450.55 631.012L2504.98 631.012L2505.04 612.908L2522.51 612.839C2521.9 619.403 2521.21 635.867 2522.51 642.082C2520.59 644.253 2517.04 647.358 2514.8 649.43L2495.19 649.43L2483.08 641.527C2469.62 645.803 2464.49 646.321 2450.27 647.043L2450.27 631.147C2445.95 631.099 2435.67 630.384 2432.63 631.977C2432.33 633.36 2432.33 634.269 2431.25 635.133C2423.44 630.456 2423.07 628.842 2414.01 626.252L2414.1 612.908L2432.05 612.839L2432.09 595.127L2432.86 595.108C2436.72 594.568 2445.98 594.735 2450.27 594.715L2450.27 576.695L2432.2 576.695C2432.18 582.314 2432.25 587.932 2432.43 593.548L2415.35 593.596L2415.33 540.07L2432.04 540.064L2432.12 521.859L2450.55 521.859L2450.55 540.087L2468.44 540.076L2486.68 540.064L2486.82 521.859ZM2450.55 576.344L2468.44 576.344L2468.44 558.315L2450.55 558.315L2450.55 576.344Z"/><path fill="#F7EB33" d="M2377.2 321.836L2394.63 322.056C2394.83 339.888 2394.82 357.722 2394.61 375.554C2390.72 375.551 2381.04 375.282 2377.73 376.09L2377.73 394.576L2394.69 394.669C2394.84 412.951 2394.8 431.233 2394.57 449.514C2388.96 449.394 2383.34 449.33 2377.73 449.324L2377.73 540.073L2359.68 540.06C2359.69 533.992 2359.63 527.924 2359.51 521.857C2359.24 516.453 2359.39 509.521 2359.34 503.993C2353.58 503.975 2347.81 504.048 2342.05 504.212L2342.12 468.429C2347.53 468.487 2354.12 468.823 2359.34 467.801L2359.34 449.324L2341.9 449.322C2342.88 443.593 2342.42 425.268 2342.35 418.791C2342.23 405.003 2342.25 391.213 2342.41 377.425C2347.79 377.482 2354.14 377.806 2359.34 376.814L2359.34 358.543L2341.32 358.543L2341.32 375.878C2334.92 375.334 2329.25 375.478 2322.87 376.089L2322.87 358.224L2341.1 358.224L2341.1 339.999L2359.34 339.999L2359.34 321.777L2377.2 321.836ZM2359.7 358.224L2377.39 358.224L2377.39 340.182L2359.7 340.182L2359.7 358.224Z"/><path fill="#FEFEFE" d="M2341.74 521.857L2359.51 521.857C2359.63 527.924 2359.69 533.992 2359.68 540.06L2377.73 540.073L2394.61 540.103C2394.72 554.96 2393.87 581.852 2394.81 595.259C2391.56 594.828 2381.45 594.955 2377.73 594.928L2377.7 622.704C2371.38 623.499 2360.16 628.247 2356.06 626.621C2341.89 620.998 2339.73 612.678 2322.87 612.834L2322.87 594.713C2328.93 594.692 2335.11 594.816 2341.17 594.884L2341.33 612.838L2359.34 612.838L2359.34 594.928C2355.14 594.947 2345.76 594.782 2342.06 595.3C2342.64 589.15 2342.77 528.051 2341.74 521.857Z"/><path fill="#FEFEFE" d="M2541.6 522.567L2541.6 540.086L2560 540.086L2560 558.317L2541.08 558.317C2540.22 562.133 2540.51 571.28 2540.51 575.569L2524.02 575.569L2524.21 523.289C2529.84 523.356 2536.15 523.722 2541.6 522.567Z"/><path fill="#F7EB33" fill-opacity="0.95294118" d="M2394.63 322.056L2396 322.049L2396 339.96L2414.24 339.96L2414.26 358.185C2418.61 358.169 2428.49 357.826 2432.2 358.807C2426.03 359.674 2421.54 359.504 2415.35 359.429L2415.35 411.592C2419.48 411.573 2428.48 411.188 2432.05 412.261C2426.29 413.348 2419.95 412.896 2414.06 412.725L2413.98 394.881L2396 394.881C2395.94 400.676 2395.66 407.039 2396.45 412.737C2396.98 419.032 2396.96 423.648 2396.89 429.934L2412.75 429.934L2412.78 412.859L2414.06 412.725C2414.13 418.533 2414.38 425.328 2414.12 431.038L2396 431.12C2396.04 436.1 2395.85 444.552 2396.23 449.249L2395.84 449.967L2394.57 449.514C2394.8 431.233 2394.84 412.951 2394.69 394.669L2395.82 393.656L2413.5 393.58L2413.5 377.426C2407.13 377.502 2402.12 377.438 2395.76 377.026C2392.04 376.426 2383.02 376.661 2377.73 376.09C2381.04 375.282 2390.72 375.551 2394.61 375.554C2394.82 357.722 2394.83 339.888 2394.63 322.056ZM2396 376.202L2413.98 376.202L2413.98 358.587L2396 358.587L2396 376.202Z"/><path fill="#F7EB33" d="M2396.89 341.383L2412.75 341.383L2412.75 357.259L2396.89 357.259L2396.89 341.383Z"/><path fill="#F7EB33" d="M2286.58 394.577L2321.87 394.553L2321.87 411.591C2317.76 411.572 2308.53 411.18 2305 412.26L2305 431.088L2286.58 431.088L2286.58 394.577Z"/><path fill="#F7EB33" d="M2324.32 450.375L2339.83 450.375C2340.09 468.23 2340.23 486.086 2340.26 503.943L2323.74 503.943C2323.94 486.038 2324.44 468.289 2324.32 450.375Z"/><path fill="#F7EB33" fill-opacity="0.95294118" d="M2322.87 376.089C2329.25 375.478 2334.92 375.334 2341.32 375.878C2344.8 376.031 2356.63 376.252 2359.34 376.814C2354.14 377.806 2347.79 377.482 2342.41 377.425C2342.25 391.213 2342.23 405.003 2342.35 418.791C2342.42 425.268 2342.88 443.593 2341.9 449.322C2340.96 454.514 2341.31 461.748 2341.37 467.173C2346.23 467.168 2354.88 466.877 2359.34 467.801C2354.12 468.823 2347.53 468.487 2342.12 468.429L2342.05 504.212L2340.26 503.943C2340.23 486.086 2340.09 468.23 2339.83 450.375L2324.32 450.375C2324.44 468.289 2323.94 486.038 2323.74 503.943L2321.94 504.213C2321.82 497.429 2321.72 492.363 2322.34 485.585C2323.31 482.398 2322.86 454.012 2322.83 449.087L2341.07 449.087L2341.07 412.93C2333.33 412.96 2311.8 413.454 2305 412.26C2308.53 411.18 2317.76 411.572 2321.87 411.591L2321.87 394.553L2341.07 394.529L2341.07 376.626C2334.63 376.694 2329.28 376.858 2322.87 376.089Z"/><path fill="#F7EB33" d="M2323.75 396.073L2340.25 396.073L2340.25 411.591L2323.75 411.591L2323.75 396.073Z"/><path fill="#F7EB33" d="M2414.12 431.038L2432.13 431.023L2432.13 449.219L2414.19 449.323C2414.16 453.752 2414.34 462.804 2413.95 466.861L2413.25 467.147C2409.14 467.536 2400.23 467.379 2395.76 467.417L2395.84 449.967L2396.23 449.249L2414.01 449.116L2414.12 431.038Z"/><path fill="#F7EB33" d="M2504.98 503.859L2523.09 503.933C2523.12 508.638 2523.42 517.442 2523.08 521.815L2522.93 539.995C2518.68 540.01 2508.47 540.32 2504.92 539.428C2505.23 534.445 2505.03 527.012 2505.04 521.859L2504.98 503.859Z"/><path fill="#FEFEFE" d="M2523.88 594.728L2540.86 594.715C2540.47 601.632 2539.93 624.939 2541.05 631.4C2536.98 631.02 2528.07 631.182 2523.65 631.147C2524.49 624.793 2524.6 600.888 2523.88 594.728Z"/><path fill="#F7EB33" d="M2531.47 449.699C2535.71 469.444 2532.49 487.564 2536.64 503.996C2532.91 504.047 2527.88 503.961 2524.28 504.235C2524.42 495.592 2523.28 454.845 2524.7 450.678L2531.47 449.699Z"/><path fill="#FEFEFE" fill-opacity="0.95294118" d="M2413.91 538.977L2414.78 539.115L2415.33 540.07L2415.35 593.596L2432.43 593.548L2432.86 595.108L2432.09 595.127L2414.09 594.841L2413.98 576.736L2396 576.736L2395.9 594.856L2394.81 595.259C2393.87 581.852 2394.72 554.96 2394.61 540.103L2395.81 540.004C2395.93 546.025 2396 552.047 2396 558.069L2413.98 558.069C2413.94 553.518 2414.13 544.404 2413.74 540.217L2413.91 538.977Z"/><path fill="#FEFEFE" d="M2396.88 559.371L2413.5 559.371L2413.5 575.424C2410.03 575.747 2400.76 575.541 2396.88 575.563L2396.88 559.371Z"/><path fill="#FEFEFE" fill-opacity="0.95294118" d="M2341.07 540.047C2341.01 534.614 2340.61 526.985 2341.74 521.857C2342.77 528.051 2342.64 589.15 2342.06 595.3L2341.17 594.884C2340.81 583.31 2341.09 570.057 2341.07 558.355L2321.87 558.335L2321.87 541.41C2316.07 541.473 2310.59 541.746 2304.87 540.729C2308.66 539.46 2335.57 540.011 2341.07 540.047Z"/><path fill="#FEFEFE" d="M2323.76 541.41L2340.24 541.41L2340.24 557.49L2323.76 557.49L2323.76 541.41Z"/><path fill="#FEFEFE" fill-opacity="0.94901961" d="M2523.08 521.815C2527.44 521.781 2538.11 521.324 2541.6 522.567C2536.15 523.722 2529.84 523.356 2524.21 523.289L2524.02 575.569L2540.51 575.569C2540.51 571.28 2540.22 562.133 2541.08 558.317C2541.8 564.955 2541.72 569.649 2541.64 576.301C2545.82 576.285 2555.43 575.935 2559.06 576.888C2553.03 577.715 2548.48 577.546 2542.43 577.475C2542.41 581.612 2542.57 591.333 2542.04 594.926C2541.17 605.764 2541.61 619.955 2541.66 631.054L2541.05 631.4C2539.93 624.939 2540.47 601.632 2540.86 594.715C2541.36 591.223 2541.2 580.748 2541.22 576.738L2523.26 576.738C2523.2 581.861 2522.79 589.969 2523.88 594.728C2524.6 600.888 2524.49 624.793 2523.65 631.147C2523.5 633.814 2523.22 639.648 2522.51 642.082C2521.21 635.867 2521.9 619.403 2522.51 612.839C2523.22 609.766 2522.99 598.791 2522.98 594.97C2517 594.983 2511.02 595.042 2505.05 595.148L2504.05 594.994L2505.04 593.648L2521.77 593.602L2522.03 541.246L2506.31 541.246C2506.37 546.467 2506.75 553.132 2505.63 558.101C2504.81 554.815 2505.06 544.89 2504.5 540.058L2504.92 539.428C2508.47 540.32 2518.68 540.01 2522.93 539.995L2523.08 521.815Z"/><path fill="#FEFEFE" d="M2395.76 521.859L2414.1 521.859C2414.15 526.68 2414.47 534.411 2413.91 538.977L2413.74 540.217C2407.46 540.381 2402.08 540.24 2395.81 540.004L2395.76 521.859Z"/><path fill="#36A840" d="M1738.93 0L1757.42 0L1757.42 18.1818L1738.93 18.1818L1738.93 0Z"/><path fill="#FEFEFE" d="M2395.9 594.856C2401.47 594.812 2408.65 594.579 2414.09 594.841C2414.1 600.667 2414.26 607.143 2414.1 612.908L2395.76 612.977L2395.9 594.856Z"/><path fill="#F7EB33" d="M2395.76 485.583L2413.76 485.581C2413.5 492.308 2413.32 497.275 2413.77 503.995L2395.76 503.992L2395.76 485.583Z"/><path fill="#F7EB33" d="M2304.87 485.583L2322.34 485.585C2321.72 492.363 2321.82 497.429 2321.94 504.213C2317.75 503.86 2309.32 504.023 2304.87 503.992L2304.87 485.583Z"/><path fill="#FEFEFE" d="M2559.06 576.888L2560 576.59L2560 594.926L2542.04 594.926C2542.57 591.333 2542.41 581.612 2542.43 577.475C2548.48 577.546 2553.03 577.715 2559.06 576.888Z"/><path fill="#FEFEFE" d="M2304.87 540.729C2310.59 541.746 2316.07 541.473 2321.87 541.41L2321.87 558.335L2304.87 558.315L2304.87 540.729Z"/><path fill="#F7EB33" d="M2395.76 377.026C2402.12 377.438 2407.13 377.502 2413.5 377.426L2413.5 393.58L2395.82 393.656L2395.76 377.026Z"/><path fill="#F7EB33" d="M2396.45 412.737L2412.78 412.859L2412.75 429.934L2396.89 429.934C2396.96 423.648 2396.98 419.032 2396.45 412.737Z"/><path fill="#FEFEFE" d="M2541.66 631.054L2560 631.012L2560 632.184C2554.51 635.641 2549.92 642.614 2542.91 639.683C2540.53 635.908 2541.27 636.449 2541.05 631.4L2541.66 631.054Z"/><path fill="#F7EB33" fill-opacity="0.94901961" d="M2522.51 430.957C2524.2 437.711 2521.66 442.742 2524.42 448.186C2527.1 449.488 2528.53 449.42 2531.47 449.699L2524.7 450.678C2523.28 454.845 2524.42 495.592 2524.28 504.235L2523.09 503.933C2523.04 496.336 2523.46 473.726 2522.51 467.417C2521.58 461.204 2521.35 436.912 2522.51 430.957Z"/><path fill="#F7EB33" fill-opacity="0.94901961" d="M2413.95 466.861C2417.72 466.984 2429.21 467.147 2432.05 467.797C2427.11 468.84 2420.5 468.483 2415.34 468.424C2415.47 491.989 2415.28 515.555 2414.78 539.115L2413.91 538.977C2414.47 534.411 2414.15 526.68 2414.1 521.859L2413.77 503.995C2413.32 497.275 2413.5 492.308 2413.76 485.581C2414.21 481.339 2414.37 471.117 2413.25 467.147L2413.95 466.861Z"/></svg>